<?xml version="1.0" encoding="UTF-8"?>
<svg id="Layer_1" xmlns="http://www.w3.org/2000/svg" version="1.1" viewBox="0 0 285.5 294.6">
  <!-- Generator: Adobe Illustrator 29.2.1, SVG Export Plug-In . SVG Version: 2.1.0 Build 116)  -->
  <defs>
    <style>
      .st0 {
        fill: #4a7b58;
      }
    </style>
  </defs>
  <path class="st0" d="M125.6,74.5c17.6,0,36.8-15.1,42.7-33.5,6.7-21.8-5.9-41-25.9-41s-37.7,15.1-43.5,34.3c-6.7,21.8,5.9,40.2,26.8,40.2ZM119.7,41c3.3-10,13.4-19.2,22.6-19.2s7.5,4.2,5,12.6c-3.3,10-13.4,18.4-21.8,18.4s-8.4-4.2-5.9-11.7Z"/>
  <path class="st0" d="M285.5,254.9c-39,11.7-68.8,18-87.2,18-26,0-36.8-7.5-36.8-24.3,0-31.8,32.6-87.1,41.8-101.3l-6.7-4.2-10-10-26.8,26.8c-8.4-20.1-29.3-32.6-53.6-32.6C56.1,127.2,0,185.8,0,236s10,39.3,26.8,39.3c33.5,0,87-42.7,126.4-79.5-7.5,17.6-13.4,36.8-13.4,52.7,0,29.3,21.8,46,58.6,46s51.7-6.7,87.2-17.2v-22.6ZM26.8,253.6c-1.7,0-5-8.4-5-17.6,0-37.7,46.9-87.1,84.5-87.1s33.5,11.7,36,27.6c-37.7,35.2-87.9,77-115.5,77Z"/>
</svg>