<?xml version="1.0" encoding="UTF-8"?>
<svg id="Layer_1" xmlns="http://www.w3.org/2000/svg" version="1.1" viewBox="0 0 266.6 81.9">
  <!-- Generator: Adobe Illustrator 29.2.1, SVG Export Plug-In . SVG Version: 2.1.0 Build 116)  -->
  <defs>
    <style>
      .st0 {
        fill: #4a7b58;
      }
    </style>
  </defs>
  <g>
    <path class="st0" d="M23.3,18.3c-.2,1.3-.2,2.4-.2,4.6v16.6c0,2,0,3.1.2,4.6h-6.7c.2-1.3.2-2.4.2-4.6v-6H6.4v6c0,2,0,3.2.2,4.6H0c.2-1.3.2-2.4.2-4.6v-16.6C.2,20.7.2,19.6,0,18.3h6.7c-.2,1.5-.2,2.7-.2,4.6v5.1h10.4v-5.1c0-2.1,0-3.4-.2-4.6h6.7Z"/>
    <path class="st0" d="M44.6,18.3c-.2,1.4-.2,2.3-.2,5v12.9c0,2.5-.7,4.5-2.1,6-1.6,1.6-4.1,2.5-7.1,2.5s-5.9-1-7.7-2.9c-.9-1-1.3-1.8-2-3.6l6-2.1c.7,2.4,1.6,3.3,3.6,3.3s3-1,3-3.2v-12.9c0-2.6,0-3.6-.2-5h6.8Z"/>
    <path class="st0" d="M67.9,44.3c-1.3-.2-2.4-.2-5.1-.2h-9.8c-2.4,0-3.2,0-4.6,0,.2-1.2.2-2.4.2-4.5v-16.9c0-1.9,0-3-.2-4.5,1.3,0,2.1,0,4.6,0h9.9c2.1,0,3.2,0,4.6-.2v5.8c-1.4-.2-2.5-.2-4.6-.2h-8.1v4.6h6.7c2,0,2.8,0,4.7-.2v5.7c-1.5-.2-2.5-.2-4.7-.2h-6.7v5.2h8c2.4,0,3.7,0,5.1-.2v5.8Z"/>
    <path class="st0" d="M75.6,44.1c-2.1,0-3.4,0-4.6,0,.2-1.1.2-2.4.2-4.5v-16.4c0-2.2,0-3.5-.2-5h6.8c-.2,1.6-.2,2.5-.2,4.9v15.4h7.5c2.6,0,3.7,0,5.1-.2v6c-1.1-.2-2.7-.2-5.1-.2h-9.4Z"/>
    <path class="st0" d="M92.3,44.1c.2-1.4.2-2.8.2-4.6v-16.8c0-1.7,0-3.1-.2-4.5,1.5,0,2.6,0,4.6,0h6.8c6.1,0,9.5,2.9,9.5,8.3s-3.5,8.8-9.5,8.8h-4.9v4c0,1.8,0,3.3.2,4.7h-6.7ZM103.4,30.1c2.2,0,3.4-1.2,3.4-3.3s-1.2-3.3-3.4-3.3h-4.6v6.6h4.6Z"/>
    <path class="st0" d="M137.6,44.1c-.2-1.1-.5-2.2-1.3-4.6l-2.9-8.2c0-.2-1-3-1.1-3.3q-.3-1.1-.5-1.5c.2,2,.3,4.5.3,6.1v6.7c0,2.1,0,3.5.2,4.8h-6.1c.2-1.4.2-2.7.2-4.8v-16.2c0-1.9,0-3.5-.2-4.8h8.2c.2,1.3.5,2.3,1.2,4.4l4.7,13.4,4.6-13.4c.7-2.1,1-3.1,1.1-4.4h8.2c-.2,1.5-.2,2.8-.2,4.8v16.2c0,2.4,0,3.6.2,4.8h-6.1c.2-1.4.2-2.6.2-4.8v-6.8c0-.7,0-3.1.2-4q0-1.6.1-2.1c-.7,2.4-1,3.5-1.4,4.7l-3,8.5c-.8,2.2-1.2,3.6-1.3,4.6h-5.4Z"/>
    <path class="st0" d="M177.6,44.3c-1.3-.2-2.4-.2-5.1-.2h-9.8c-2.4,0-3.2,0-4.6,0,.2-1.2.2-2.4.2-4.5v-16.9c0-1.9,0-3-.2-4.5,1.3,0,2.1,0,4.6,0h9.9c2.1,0,3.2,0,4.6-.2v5.8c-1.4-.2-2.5-.2-4.6-.2h-8.1v4.6h6.7c2,0,2.8,0,4.7-.2v5.7c-1.5-.2-2.5-.2-4.7-.2h-6.7v5.2h8c2.4,0,3.7,0,5.1-.2v5.8Z"/>
    <path class="st0" d="M195.8,34.6c-1.6,0-2.1,0-3.1.2v-5.5c1.1.2,1.9.2,4.1.2h2.5c1.6,0,2.7,0,4.1-.2-.2,1.2-.2,2.2-.2,4.2v3.5c0,2.2,0,3.2.2,4.6-1.7,1.1-2.5,1.5-3.9,2-2,.7-4.3,1.1-6.6,1.1-3.9,0-7-1.1-9.2-3.3-2.4-2.4-3.7-6-3.7-10.3,0-8.2,4.9-13.3,12.7-13.3s6.8,1.2,8.9,3.7c.8,1,1.3,1.9,1.8,3.4l-6.3,1.5c-.3-1.1-.7-1.7-1.4-2.2-.8-.7-1.8-1-3.1-1-4,0-6.1,2.9-6.1,8.1s.7,5.1,1.9,6.5c1,1.1,2.5,1.7,4.5,1.7s3-.3,4.5-1.1v-3.5h-1.5Z"/>
    <path class="st0" d="M4.6,81.3C2.5,81.3,1.2,81.3,0,81.4c.2-1.1.2-2.5.2-4.5v-16.4C.2,58.3.2,57,0,55.5h6.8c-.2,1.6-.2,2.5-.2,4.9v15.4h7.5c2.6,0,3.7,0,5.1-.2v6c-1.1-.2-2.7-.2-5.1-.2H4.6Z"/>
    <path class="st0" d="M40.7,81.5c-1.3-.2-2.4-.2-5.1-.2h-9.8c-2.4,0-3.2,0-4.6,0,.2-1.2.2-2.4.2-4.5v-16.9c0-1.9,0-3-.2-4.5,1.3,0,2.1,0,4.6,0h9.9c2.1,0,3.2,0,4.6-.2v5.8c-1.4-.2-2.5-.2-4.6-.2h-8.1v4.6h6.7c2,0,2.8,0,4.7-.2v5.7c-1.5-.2-2.5-.2-4.7-.2h-6.7v5.2h8c2.4,0,3.7,0,5.1-.2v5.8Z"/>
    <path class="st0" d="M49.5,72.9c.1,1.1.3,1.7.8,2.3.7.9,2,1.5,3.6,1.5,2.4,0,3.8-1.1,3.8-2.8s-.5-1.8-1.3-2.2c-.7-.3-1.4-.5-4.7-1.3-2.9-.6-3.8-1-5-1.8-2-1.4-3-3.4-3-6,0-4.8,3.8-7.8,10-7.8s6.9,1.2,8.6,3.5c.8,1,1.1,2,1.5,3.7l-6.6.7c-.4-2-1.5-2.9-3.8-2.9s-3.3,1-3.3,2.4.5,1.5,1.5,2q.6.3,4.3,1c2.4.5,3.8,1,5,1.8,2.2,1.4,3.3,3.5,3.3,6.3s-.7,4.3-2.2,5.7c-1.8,1.7-4.5,2.6-8.2,2.6s-5.2-.6-6.9-1.5c-1.5-.9-2.7-2.2-3.3-4-.3-.7-.5-1.5-.7-2.9l6.4-.6Z"/>
    <path class="st0" d="M87,81.5c-1.3-.2-2.4-.2-5.1-.2h-9.8c-2.4,0-3.2,0-4.6,0,.2-1.2.2-2.4.2-4.5v-16.9c0-1.9,0-3-.2-4.5,1.3,0,2.1,0,4.6,0h9.9c2.1,0,3.2,0,4.6-.2v5.8c-1.4-.2-2.5-.2-4.6-.2h-8.1v4.6h6.7c2,0,2.8,0,4.7-.2v5.7c-1.5-.2-2.5-.2-4.7-.2h-6.7v5.2h8c2.4,0,3.7,0,5.1-.2v5.8Z"/>
    <path class="st0" d="M105.1,81.3c-2.4,0-3.3,0-4.6,0,.2-1.3.2-2.4.2-4.6v-17c0-1.6,0-3-.2-4.5,1.6,0,2,0,4.6,0h8.1c5,0,8,2.4,8,6.5s-.6,3.4-1.8,4.4c-.7.6-1.2.9-2.5,1.4,1.5.3,2.3.7,3.2,1.5,1.3,1.2,2,2.9,2,4.9,0,4.5-3.2,7.1-8.6,7.1h-8.4ZM112.3,65.4c1.6,0,2.7-1,2.7-2.5s-1-2.4-2.7-2.4h-5.4v4.9h5.5ZM106.8,76.2h5.7c2,0,3.1-1.1,3.1-2.9s-1.2-2.9-3.2-2.9h-5.7v5.8Z"/>
    <path class="st0" d="M132,55.5c-.2,1.3-.2,2.3-.2,4.6v16.6c0,2.1,0,3.3.2,4.6h-6.8c.2-1.2.2-2.5.2-4.6v-16.6c0-2.3,0-3.2-.2-4.6h6.8Z"/>
    <path class="st0" d="M140.4,81.3c-2.4,0-3.3,0-4.6,0,.2-1.3.2-2.4.2-4.6v-17c0-1.6,0-3-.2-4.5,1.6,0,2,0,4.6,0h8.1c5,0,8,2.4,8,6.5s-.6,3.4-1.8,4.4c-.7.6-1.2.9-2.5,1.4,1.5.3,2.3.7,3.2,1.5,1.3,1.2,2,2.9,2,4.9,0,4.5-3.2,7.1-8.6,7.1h-8.4ZM147.6,65.4c1.6,0,2.7-1,2.7-2.5s-1-2.4-2.7-2.4h-5.4v4.9h5.5ZM142.2,76.2h5.7c2,0,3.1-1.1,3.1-2.9s-1.2-2.9-3.2-2.9h-5.7v5.8Z"/>
    <path class="st0" d="M180,81.5c-1.3-.2-2.5-.2-5.1-.2h-9.8c-2.4,0-3.2,0-4.6,0,.2-1.2.2-2.4.2-4.5v-16.9c0-1.9,0-3-.2-4.5,1.3,0,2.1,0,4.6,0h9.9c2.1,0,3.2,0,4.6-.2v5.8c-1.4-.2-2.5-.2-4.6-.2h-8.1v4.6h6.7c2,0,2.8,0,4.7-.2v5.7c-1.5-.2-2.5-.2-4.7-.2h-6.7v5.2h8c2.4,0,3.7,0,5.1-.2v5.8Z"/>
    <path class="st0" d="M187.8,81.3c-2.1,0-3.4,0-4.6,0,.2-1.1.2-2.5.2-4.5v-16.4c0-2.2,0-3.5-.2-5h6.8c-.2,1.6-.2,2.5-.2,4.9v15.4h7.5c2.6,0,3.7,0,5.1-.2v6c-1.1-.2-2.7-.2-5.1-.2h-9.4Z"/>
    <path class="st0" d="M223.9,81.5c-1.3-.2-2.4-.2-5.1-.2h-9.8c-2.4,0-3.2,0-4.6,0,.2-1.2.2-2.4.2-4.5v-16.9c0-1.9,0-3-.2-4.5,1.3,0,2.1,0,4.6,0h9.9c2.1,0,3.2,0,4.6-.2v5.8c-1.4-.2-2.5-.2-4.6-.2h-8.1v4.6h6.7c2,0,2.8,0,4.7-.2v5.7c-1.5-.2-2.5-.2-4.7-.2h-6.7v5.2h8c2.4,0,3.7,0,5.1-.2v5.8Z"/>
    <path class="st0" d="M241.9,68.2c.9,1.3,1.5,2.3,2.2,3.7-.1-1.4-.2-2.9-.2-4.6v-7.1c0-2,0-3.3-.2-4.7h6.6c-.2,1.4-.2,2.7-.2,4.7v16.5c0,1.9,0,3.3.2,4.6h-6.8c-.6-1.2-1.3-2.3-2.3-3.9l-5.7-8.7c-.8-1.2-1.4-2.2-2.2-3.8.2,1.4.2,3.1.2,4.6v6.9c0,2.1,0,3.5.2,4.8h-6.6c.2-1.2.2-2.6.2-4.9v-16.3c0-1.8,0-3.2-.2-4.6h6.7c.3.8,1,2.1,2.2,3.9l5.9,8.8Z"/>
  </g>
  <g>
    <path class="st0" d="M241.9,11.5c2.7,0,5.7-2.3,6.6-5.2,1-3.4-.9-6.3-4-6.3s-5.8,2.3-6.7,5.3c-1,3.4.9,6.2,4.1,6.2ZM241,6.3c.5-1.6,2.1-3,3.5-3s1.2.6.8,1.9c-.5,1.6-2.1,2.8-3.4,2.8s-1.3-.6-.9-1.8Z"/>
    <path class="st0" d="M266.6,39.3c-6,1.8-10.6,2.8-13.5,2.8-4,0-5.7-1.2-5.7-3.7,0-4.9,5-13.4,6.5-15.6l-1-.6-1.6-1.5-4.1,4.1c-1.3-3.1-4.5-5-8.3-5-7.8,0-16.4,9-16.4,16.8s1.6,6.1,4.1,6.1c5.2,0,13.4-6.6,19.5-12.3-1.2,2.7-2.1,5.7-2.1,8.1,0,4.5,3.4,7.1,9,7.1s8-1,13.5-2.6v-3.5ZM226.6,39.1c-.3,0-.8-1.3-.8-2.7,0-5.8,7.2-13.4,13-13.4s5.2,1.8,5.6,4.3c-5.8,5.4-13.6,11.9-17.8,11.9Z"/>
  </g>
</svg>