<?xml version="1.0" encoding="UTF-8"?>
<svg id="Layer_1" xmlns="http://www.w3.org/2000/svg" version="1.1" viewBox="0 0 972 83.5">
  <!-- Generator: Adobe Illustrator 29.2.1, SVG Export Plug-In . SVG Version: 2.1.0 Build 116)  -->
  <defs>
    <style>
      .st0 {
        fill: #4a7b58;
      }
    </style>
  </defs>
  <g>
    <path class="st0" d="M42.8,33.5c-.3,2.3-.5,4.4-.5,8.4v30.5c0,3.7.1,5.6.5,8.4h-12.2c.3-2.4.5-4.5.5-8.4v-11H11.8v11c0,3.7.1,5.9.5,8.4H0c.3-2.3.5-4.4.5-8.4v-30.5c0-3.9-.1-6-.5-8.4h12.2c-.3,2.7-.5,4.9-.5,8.4v9.5h19.2v-9.5c0-3.9-.1-6.2-.5-8.4h12.2Z"/>
    <path class="st0" d="M81.9,33.5c-.4,2.5-.5,4.2-.5,9.2v23.7c0,4.7-1.2,8.3-3.9,10.9-2.9,3-7.5,4.6-13.1,4.6s-10.9-1.8-14.1-5.3c-1.7-1.8-2.5-3.2-3.8-6.7l11.1-3.8c1.2,4.4,2.9,6,6.5,6s5.6-1.9,5.6-5.8v-23.7c0-4.8-.1-6.6-.5-9.2h12.5Z"/>
    <path class="st0" d="M124.7,81.3c-2.4-.3-4.5-.4-9.4-.4h-17.9c-4.3,0-5.9,0-8.4.2.3-2.3.5-4.4.5-8.3v-31.1c0-3.5-.1-5.5-.5-8.3,2.3.1,3.9.2,8.4.2h18.2c3.9,0,5.8-.1,8.5-.4v10.6c-2.6-.3-4.7-.4-8.5-.4h-14.8v8.4h12.3c3.8,0,5.1,0,8.5-.4v10.5c-2.7-.3-4.6-.4-8.5-.4h-12.3v9.6h14.7c4.3,0,6.8-.1,9.3-.4v10.6Z"/>
    <path class="st0" d="M138.9,80.9c-3.9,0-6.3,0-8.4.2.3-2,.5-4.5.5-8.3v-30.1c0-4-.1-6.4-.5-9.2h12.4c-.4,3-.5,4.6-.5,9v28.2h13.8c4.8,0,6.8,0,9.5-.4v10.9c-2.1-.3-4.9-.4-9.5-.4h-17.3Z"/>
    <path class="st0" d="M169.5,80.9c.3-2.5.5-5.1.5-8.4v-30.8c0-3.1-.1-5.6-.5-8.3,2.7.1,4.7.2,8.4.2h12.5c11.3,0,17.5,5.4,17.5,15.3s-6.5,16.2-17.5,16.2h-9v7.3c0,3.4.2,6.1.5,8.6h-12.2ZM189.8,55.3c4,0,6.3-2.2,6.3-6.1s-2.2-6-6.3-6h-8.5v12.1h8.5Z"/>
    <path class="st0" d="M252.6,80.9c-.3-2-.9-4.1-2.5-8.4l-5.2-15.1c0-.3-1.8-5.6-1.9-6q-.6-2-.9-2.8c.3,3.6.6,8.3.6,11.3v12.4c0,3.9.1,6.4.5,8.8h-11.2c.3-2.6.5-5,.5-8.8v-29.7c0-3.4-.2-6.4-.5-8.9h15c.4,2.5.9,4.3,2.2,8l8.5,24.5,8.5-24.5c1.3-3.8,1.8-5.6,2.1-8h15.1c-.3,2.7-.5,5.1-.5,8.9v29.7c0,4.3.1,6.5.5,8.8h-11.2c.3-2.6.5-4.8.5-8.8v-12.4c0-1.4.2-5.6.3-7.4q.2-3,.2-3.9c-1.3,4.4-1.8,6.5-2.6,8.5l-5.5,15.6c-1.4,4-2.2,6.5-2.4,8.4h-9.9Z"/>
    <path class="st0" d="M326.1,81.3c-2.5-.3-4.5-.4-9.4-.4h-17.9c-4.3,0-5.9,0-8.4.2.3-2.3.5-4.4.5-8.3v-31.1c0-3.5-.1-5.5-.5-8.3,2.3.1,3.9.2,8.4.2h18.2c3.9,0,5.8-.1,8.5-.4v10.6c-2.6-.3-4.7-.4-8.5-.4h-14.8v8.4h12.3c3.8,0,5.1,0,8.5-.4v10.5c-2.7-.3-4.6-.4-8.5-.4h-12.3v9.6h14.7c4.3,0,6.8-.1,9.3-.4v10.6Z"/>
    <path class="st0" d="M359.5,63.6c-2.9,0-3.9,0-5.6.3v-10.1c2.1.3,3.5.3,7.5.3h4.6c2.9,0,5,0,7.5-.3-.3,2.2-.4,4-.4,7.7v6.4c0,4,0,5.9.4,8.5-3.1,2-4.7,2.7-7.2,3.6-3.7,1.3-7.9,1.9-12.1,1.9-7.2,0-12.9-2-16.9-6.1-4.3-4.3-6.7-11.1-6.7-18.9,0-15,9.1-24.5,23.4-24.5s12.5,2.2,16.3,6.8c1.5,1.8,2.4,3.5,3.4,6.2l-11.6,2.7c-.6-2-1.3-3.1-2.6-4.1-1.5-1.2-3.4-1.8-5.7-1.8-7.3,0-11.3,5.3-11.3,14.9s1.2,9.4,3.5,11.9c1.8,2,4.6,3.1,8.2,3.1s5.5-.6,8.3-2v-6.5h-2.7Z"/>
    <path class="st0" d="M520.9,80.9c-3.9,0-6.3,0-8.4.2.3-2,.5-4.5.5-8.3v-30.1c0-4-.1-6.4-.5-9.2h12.4c-.4,3-.5,4.6-.5,9v28.2h13.8c4.8,0,6.8,0,9.5-.4v10.9c-2.1-.3-4.9-.4-9.5-.4h-17.3Z"/>
    <path class="st0" d="M587.2,81.3c-2.5-.3-4.5-.4-9.4-.4h-17.9c-4.3,0-5.9,0-8.4.2.3-2.3.5-4.4.5-8.3v-31.1c0-3.5-.1-5.5-.5-8.3,2.3.1,3.9.2,8.4.2h18.2c3.9,0,5.8-.1,8.5-.4v10.6c-2.6-.3-4.7-.4-8.5-.4h-14.8v8.4h12.3c3.8,0,5.1,0,8.5-.4v10.5c-2.7-.3-4.6-.4-8.5-.4h-12.3v9.6h14.7c4.3,0,6.8-.1,9.3-.4v10.6Z"/>
    <path class="st0" d="M603.4,65.5c.2,2,.6,3.1,1.5,4.2,1.4,1.7,3.8,2.7,6.7,2.7,4.4,0,7-1.9,7-5.1s-.9-3.3-2.4-4c-1.2-.6-2.6-1-8.5-2.3-5.2-1.1-7.1-1.8-9.2-3.3-3.6-2.5-5.5-6.3-5.5-10.9,0-8.8,7.1-14.3,18.3-14.3s12.8,2.2,15.8,6.5c1.4,1.9,2.1,3.6,2.8,6.8l-12.1,1.3c-.7-3.7-2.7-5.2-7.1-5.2s-6,1.9-6,4.5.9,2.8,2.7,3.6q1.1.5,7.9,1.9c4.3.9,7.1,1.9,9.2,3.2,4.1,2.6,6.1,6.4,6.1,11.6s-1.4,7.9-4,10.5c-3.3,3.2-8.3,4.8-15,4.8s-9.6-1-12.7-2.8c-2.9-1.6-5-4-6.1-7.3-.6-1.4-.9-2.7-1.3-5.3l11.8-1.1Z"/>
    <path class="st0" d="M672.2,81.3c-2.5-.3-4.5-.4-9.4-.4h-17.9c-4.3,0-5.9,0-8.4.2.3-2.3.5-4.4.5-8.3v-31.1c0-3.5-.1-5.5-.5-8.3,2.3.1,3.9.2,8.4.2h18.2c3.9,0,5.8-.1,8.5-.4v10.6c-2.6-.3-4.7-.4-8.5-.4h-14.8v8.4h12.3c3.8,0,5.1,0,8.5-.4v10.5c-2.7-.3-4.6-.4-8.5-.4h-12.3v9.6h14.7c4.3,0,6.8-.1,9.3-.4v10.6Z"/>
    <path class="st0" d="M705.4,80.9c-4.3,0-6,0-8.4.2.3-2.5.5-4.4.5-8.4v-31.1c0-3-.1-5.5-.5-8.2,2.9.2,3.7.2,8.4.2h14.9c9.2,0,14.6,4.4,14.6,12s-1.1,6.2-3.3,8.1c-1.3,1.1-2.3,1.7-4.6,2.5,2.8.6,4.3,1.3,5.9,2.7,2.5,2.2,3.7,5.2,3.7,9,0,8.2-5.8,13-15.7,13h-15.5ZM708.6,71.5h10.5c3.6,0,5.8-2,5.8-5.4s-2.2-5.2-5.8-5.2h-10.4v10.6ZM718.6,51.8c3,0,4.9-1.8,4.9-4.6s-1.8-4.4-5-4.4h-9.9v8.9h10Z"/>
    <path class="st0" d="M754.8,33.5c-.3,2.3-.5,4.3-.5,8.4v30.5c0,3.9.1,6,.5,8.4h-12.5c.3-2.2.5-4.6.5-8.4v-30.5c0-4.3-.1-5.9-.5-8.4h12.5Z"/>
    <path class="st0" d="M770.3,80.9c-4.3,0-6,0-8.4.2.3-2.5.5-4.4.5-8.4v-31.1c0-3-.1-5.5-.5-8.2,2.9.2,3.7.2,8.4.2h14.9c9.2,0,14.6,4.4,14.6,12s-1.1,6.2-3.3,8.1c-1.3,1.1-2.3,1.7-4.6,2.5,2.8.6,4.3,1.3,5.9,2.7,2.5,2.2,3.7,5.2,3.7,9,0,8.2-5.8,13-15.7,13h-15.5ZM773.5,71.5h10.5c3.6,0,5.8-2,5.8-5.4s-2.2-5.2-5.8-5.2h-10.4v10.6ZM783.5,51.8c3,0,4.9-1.8,4.9-4.6s-1.8-4.4-5-4.4h-9.9v8.9h10Z"/>
    <path class="st0" d="M843,81.3c-2.5-.3-4.5-.4-9.4-.4h-17.9c-4.3,0-5.9,0-8.4.2.3-2.3.5-4.4.5-8.3v-31.1c0-3.5-.1-5.5-.5-8.3,2.3.1,3.9.2,8.4.2h18.2c3.9,0,5.8-.1,8.5-.4v10.6c-2.6-.3-4.7-.4-8.5-.4h-14.8v8.4h12.3c3.8,0,5.1,0,8.5-.4v10.5c-2.7-.3-4.6-.4-8.5-.4h-12.3v9.6h14.7c4.3,0,6.8-.1,9.3-.4v10.6Z"/>
    <path class="st0" d="M857.2,80.9c-3.9,0-6.3,0-8.4.2.3-2,.5-4.5.5-8.3v-30.1c0-4-.1-6.4-.5-9.2h12.4c-.4,3-.5,4.6-.5,9v28.2h13.8c4.8,0,6.8,0,9.5-.4v10.9c-2.1-.3-4.9-.4-9.5-.4h-17.3Z"/>
    <path class="st0" d="M923.5,81.3c-2.4-.3-4.5-.4-9.4-.4h-17.9c-4.3,0-5.9,0-8.4.2.3-2.3.5-4.4.5-8.3v-31.1c0-3.5-.1-5.5-.5-8.3,2.3.1,3.9.2,8.4.2h18.2c3.9,0,5.8-.1,8.5-.4v10.6c-2.6-.3-4.7-.4-8.5-.4h-14.8v8.4h12.3c3.8,0,5.1,0,8.5-.4v10.5c-2.7-.3-4.6-.4-8.5-.4h-12.3v9.6h14.7c4.3,0,6.8-.1,9.3-.4v10.6Z"/>
    <path class="st0" d="M956.5,56.8c1.6,2.4,2.7,4.3,4.1,6.8-.2-2.6-.3-5.2-.3-8.4v-13c0-3.8-.1-6-.5-8.7h12.1c-.3,2.6-.5,5-.5,8.7v30.2c0,3.5.2,6.1.5,8.5h-12.5c-1-2.2-2.3-4.3-4.3-7.2l-10.5-15.9c-1.5-2.3-2.5-4-4.1-7,.3,2.6.4,5.7.4,8.5v12.8c0,3.9.1,6.4.5,8.9h-12.1c.3-2.2.5-4.7.5-8.9v-29.9c0-3.3-.1-5.9-.5-8.5h12.4c.6,1.5,1.8,3.8,4,7.1l10.8,16.2Z"/>
  </g>
  <g>
    <path class="st0" d="M447.8,21.1c5,0,10.4-4.3,12.1-9.5,1.9-6.2-1.7-11.6-7.4-11.6s-10.7,4.3-12.3,9.7c-1.9,6.2,1.7,11.4,7.6,11.4ZM446.1,11.6c.9-2.8,3.8-5.5,6.4-5.5s2.1,1.2,1.4,3.6c-.9,2.8-3.8,5.2-6.2,5.2s-2.4-1.2-1.7-3.3Z"/>
    <path class="st0" d="M493.1,72.2c-11,3.3-19.5,5.1-24.7,5.1-7.4,0-10.4-2.1-10.4-6.9,0-9,9.3-24.7,11.9-28.7l-1.9-1.2-2.8-2.8-7.6,7.6c-2.4-5.7-8.3-9.3-15.2-9.3-14.2,0-30.1,16.6-30.1,30.8s2.8,11.1,7.6,11.1c9.5,0,24.7-12.1,35.8-22.5-2.1,5-3.8,10.4-3.8,14.9,0,8.3,6.2,13,16.6,13s14.6-1.9,24.7-4.9v-6.4ZM419.8,71.9c-.5,0-1.4-2.4-1.4-5,0-10.7,13.3-24.7,24-24.7s9.5,3.3,10.2,7.8c-10.7,10-24.9,21.8-32.7,21.8Z"/>
  </g>
</svg>