<?xml version="1.0" encoding="UTF-8"?>
<svg id="Layer_1" xmlns="http://www.w3.org/2000/svg" version="1.1" viewBox="0 0 266.6 108.7">
  <!-- Generator: Adobe Illustrator 29.2.1, SVG Export Plug-In . SVG Version: 2.1.0 Build 116)  -->
  <defs>
    <style>
      .st0 {
        fill: #4a7b58;
      }

      .st1 {
        fill: #294d31;
      }
    </style>
  </defs>
  <g>
    <g>
      <path class="st0" d="M23.3,18.3c-.2,1.3-.2,2.4-.2,4.6v16.6c0,2,0,3.1.2,4.6h-6.7c.2-1.3.2-2.4.2-4.6v-6H6.4v6c0,2,0,3.2.2,4.6H0c.2-1.3.2-2.4.2-4.6v-16.6c0-2.1,0-3.3-.2-4.6h6.7c-.2,1.5-.2,2.7-.2,4.6v5.1h10.4v-5.1c0-2.1,0-3.4-.2-4.6h6.7Z"/>
      <path class="st0" d="M44.6,18.3c-.2,1.4-.2,2.3-.2,5v12.9c0,2.5-.7,4.5-2.1,6-1.6,1.6-4.1,2.5-7.1,2.5s-5.9-1-7.7-2.9c-.9-1-1.3-1.8-2-3.6l6-2.1c.7,2.4,1.6,3.3,3.6,3.3s3-1,3-3.2v-12.9c0-2.6,0-3.6-.2-5h6.8Z"/>
      <path class="st0" d="M67.9,44.3c-1.3-.2-2.4-.2-5.1-.2h-9.8c-2.4,0-3.2,0-4.6,0,.2-1.2.2-2.4.2-4.5v-16.9c0-1.9,0-3-.2-4.5,1.3,0,2.1,0,4.6,0h9.9c2.1,0,3.2,0,4.6-.2v5.8c-1.4-.2-2.5-.2-4.6-.2h-8.1v4.6h6.7c2,0,2.8,0,4.7-.2v5.7c-1.5-.2-2.5-.2-4.7-.2h-6.7v5.2h8c2.4,0,3.7,0,5.1-.2v5.8Z"/>
      <path class="st0" d="M75.6,44.1c-2.1,0-3.4,0-4.6,0,.2-1.1.2-2.4.2-4.5v-16.4c0-2.2,0-3.5-.2-5h6.8c-.2,1.6-.2,2.5-.2,4.9v15.4h7.5c2.6,0,3.7,0,5.1-.2v6c-1.1-.2-2.7-.2-5.1-.2h-9.4Z"/>
      <path class="st0" d="M92.3,44.1c.2-1.4.2-2.8.2-4.6v-16.8c0-1.7,0-3.1-.2-4.5,1.5,0,2.6,0,4.6,0h6.8c6.1,0,9.5,2.9,9.5,8.3s-3.5,8.8-9.5,8.8h-4.9v4c0,1.8,0,3.3.2,4.7h-6.7ZM103.4,30.1c2.2,0,3.4-1.2,3.4-3.3s-1.2-3.3-3.4-3.3h-4.6v6.6h4.6Z"/>
      <path class="st0" d="M137.6,44.1c-.2-1.1-.5-2.2-1.3-4.6l-2.9-8.2c0-.2-1-3-1.1-3.3q-.3-1.1-.5-1.5c.2,2,.3,4.5.3,6.1v6.7c0,2.1,0,3.5.2,4.8h-6.1c.2-1.4.2-2.7.2-4.8v-16.2c0-1.9,0-3.5-.2-4.8h8.2c.2,1.3.5,2.3,1.2,4.4l4.7,13.4,4.6-13.4c.7-2.1,1-3.1,1.1-4.4h8.2c-.2,1.5-.2,2.8-.2,4.8v16.2c0,2.4,0,3.6.2,4.8h-6.1c.2-1.4.2-2.6.2-4.8v-6.8c0-.7,0-3.1.2-4q0-1.6.1-2.1c-.7,2.4-1,3.5-1.4,4.7l-3,8.5c-.8,2.2-1.2,3.6-1.3,4.6h-5.4Z"/>
      <path class="st0" d="M177.6,44.3c-1.3-.2-2.4-.2-5.1-.2h-9.8c-2.4,0-3.2,0-4.6,0,.2-1.2.2-2.4.2-4.5v-16.9c0-1.9,0-3-.2-4.5,1.3,0,2.1,0,4.6,0h9.9c2.1,0,3.2,0,4.6-.2v5.8c-1.4-.2-2.5-.2-4.6-.2h-8.1v4.6h6.7c2,0,2.8,0,4.7-.2v5.7c-1.5-.2-2.5-.2-4.7-.2h-6.7v5.2h8c2.4,0,3.7,0,5.1-.2v5.8Z"/>
      <path class="st0" d="M195.8,34.6c-1.6,0-2.1,0-3.1.2v-5.5c1.1.2,1.9.2,4.1.2h2.5c1.6,0,2.7,0,4.1-.2-.2,1.2-.2,2.2-.2,4.2v3.5c0,2.2,0,3.2.2,4.6-1.7,1.1-2.5,1.5-3.9,2-2,.7-4.3,1.1-6.6,1.1-3.9,0-7-1.1-9.2-3.3-2.4-2.4-3.7-6-3.7-10.3,0-8.2,4.9-13.3,12.7-13.3s6.8,1.2,8.9,3.7c.8,1,1.3,1.9,1.8,3.4l-6.3,1.5c-.3-1.1-.7-1.7-1.4-2.2-.8-.7-1.8-1-3.1-1-4,0-6.1,2.9-6.1,8.1s.7,5.1,1.9,6.5c1,1.1,2.5,1.7,4.5,1.7s3-.3,4.5-1.1v-3.5h-1.5Z"/>
      <path class="st0" d="M4.6,81.3c-2.1,0-3.4,0-4.6,0,.2-1.1.2-2.5.2-4.5v-16.4c0-2.2,0-3.5-.2-5h6.8c-.2,1.6-.2,2.5-.2,4.9v15.4h7.5c2.6,0,3.7,0,5.1-.2v6c-1.1-.2-2.7-.2-5.1-.2H4.6Z"/>
      <path class="st0" d="M40.7,81.5c-1.3-.2-2.4-.2-5.1-.2h-9.8c-2.4,0-3.2,0-4.6,0,.2-1.2.2-2.4.2-4.5v-16.9c0-1.9,0-3-.2-4.5,1.3,0,2.1,0,4.6,0h9.9c2.1,0,3.2,0,4.6-.2v5.8c-1.4-.2-2.5-.2-4.6-.2h-8.1v4.6h6.7c2,0,2.8,0,4.7-.2v5.7c-1.5-.2-2.5-.2-4.7-.2h-6.7v5.2h8c2.4,0,3.7,0,5.1-.2v5.8Z"/>
      <path class="st0" d="M49.5,72.9c.1,1.1.3,1.7.8,2.3.7.9,2,1.5,3.6,1.5,2.4,0,3.8-1.1,3.8-2.8s-.5-1.8-1.3-2.2c-.7-.3-1.4-.5-4.7-1.3-2.9-.6-3.8-1-5-1.8-2-1.4-3-3.4-3-6,0-4.8,3.8-7.8,10-7.8s6.9,1.2,8.6,3.5c.8,1,1.1,2,1.5,3.7l-6.6.7c-.4-2-1.5-2.9-3.8-2.9s-3.3,1-3.3,2.4.5,1.5,1.5,2q.6.3,4.3,1c2.4.5,3.8,1,5,1.8,2.2,1.4,3.3,3.5,3.3,6.3s-.7,4.3-2.2,5.7c-1.8,1.7-4.5,2.6-8.2,2.6s-5.2-.6-6.9-1.5c-1.5-.9-2.7-2.2-3.3-4-.3-.7-.5-1.5-.7-2.9l6.4-.6Z"/>
      <path class="st0" d="M87,81.5c-1.3-.2-2.4-.2-5.1-.2h-9.8c-2.4,0-3.2,0-4.6,0,.2-1.2.2-2.4.2-4.5v-16.9c0-1.9,0-3-.2-4.5,1.3,0,2.1,0,4.6,0h9.9c2.1,0,3.2,0,4.6-.2v5.8c-1.4-.2-2.5-.2-4.6-.2h-8.1v4.6h6.7c2,0,2.8,0,4.7-.2v5.7c-1.5-.2-2.5-.2-4.7-.2h-6.7v5.2h8c2.4,0,3.7,0,5.1-.2v5.8Z"/>
      <path class="st0" d="M105.1,81.3c-2.4,0-3.3,0-4.6,0,.2-1.3.2-2.4.2-4.6v-17c0-1.6,0-3-.2-4.5,1.6,0,2,0,4.6,0h8.1c5,0,8,2.4,8,6.5s-.6,3.4-1.8,4.4c-.7.6-1.2.9-2.5,1.4,1.5.3,2.3.7,3.2,1.5,1.3,1.2,2,2.9,2,4.9,0,4.5-3.2,7.1-8.6,7.1h-8.4ZM112.3,65.4c1.6,0,2.7-1,2.7-2.5s-1-2.4-2.7-2.4h-5.4v4.9h5.5ZM106.8,76.2h5.7c2,0,3.1-1.1,3.1-2.9s-1.2-2.9-3.2-2.9h-5.7v5.8Z"/>
      <path class="st0" d="M132,55.5c-.2,1.3-.2,2.3-.2,4.6v16.6c0,2.1,0,3.3.2,4.6h-6.8c.2-1.2.2-2.5.2-4.6v-16.6c0-2.3,0-3.2-.2-4.6h6.8Z"/>
      <path class="st0" d="M140.4,81.3c-2.4,0-3.3,0-4.6,0,.2-1.3.2-2.4.2-4.6v-17c0-1.6,0-3-.2-4.5,1.6,0,2,0,4.6,0h8.1c5,0,8,2.4,8,6.5s-.6,3.4-1.8,4.4c-.7.6-1.2.9-2.5,1.4,1.5.3,2.3.7,3.2,1.5,1.3,1.2,2,2.9,2,4.9,0,4.5-3.2,7.1-8.6,7.1h-8.4ZM147.6,65.4c1.6,0,2.7-1,2.7-2.5s-1-2.4-2.7-2.4h-5.4v4.9h5.5ZM142.2,76.2h5.7c2,0,3.1-1.1,3.1-2.9s-1.2-2.9-3.2-2.9h-5.7v5.8Z"/>
      <path class="st0" d="M180,81.5c-1.3-.2-2.5-.2-5.1-.2h-9.8c-2.4,0-3.2,0-4.6,0,.2-1.2.2-2.4.2-4.5v-16.9c0-1.9,0-3-.2-4.5,1.3,0,2.1,0,4.6,0h9.9c2.1,0,3.2,0,4.6-.2v5.8c-1.4-.2-2.5-.2-4.6-.2h-8.1v4.6h6.7c2,0,2.8,0,4.7-.2v5.7c-1.5-.2-2.5-.2-4.7-.2h-6.7v5.2h8c2.4,0,3.7,0,5.1-.2v5.8Z"/>
      <path class="st0" d="M187.8,81.3c-2.1,0-3.4,0-4.6,0,.2-1.1.2-2.5.2-4.5v-16.4c0-2.2,0-3.5-.2-5h6.8c-.2,1.6-.2,2.5-.2,4.9v15.4h7.5c2.6,0,3.7,0,5.1-.2v6c-1.1-.2-2.7-.2-5.1-.2h-9.4Z"/>
      <path class="st0" d="M223.9,81.5c-1.3-.2-2.4-.2-5.1-.2h-9.8c-2.4,0-3.2,0-4.6,0,.2-1.2.2-2.4.2-4.5v-16.9c0-1.9,0-3-.2-4.5,1.3,0,2.1,0,4.6,0h9.9c2.1,0,3.2,0,4.6-.2v5.8c-1.4-.2-2.5-.2-4.6-.2h-8.1v4.6h6.7c2,0,2.8,0,4.7-.2v5.7c-1.5-.2-2.5-.2-4.7-.2h-6.7v5.2h8c2.4,0,3.7,0,5.1-.2v5.8Z"/>
      <path class="st0" d="M241.9,68.2c.9,1.3,1.5,2.3,2.2,3.7-.1-1.4-.2-2.9-.2-4.6v-7.1c0-2,0-3.3-.2-4.7h6.6c-.2,1.4-.2,2.7-.2,4.7v16.5c0,1.9,0,3.3.2,4.6h-6.8c-.6-1.2-1.3-2.3-2.3-3.9l-5.7-8.7c-.8-1.2-1.4-2.2-2.2-3.8.2,1.4.2,3.1.2,4.6v6.9c0,2.1,0,3.5.2,4.8h-6.6c.2-1.2.2-2.6.2-4.9v-16.3c0-1.8,0-3.2-.2-4.6h6.7c.3.8,1,2.1,2.2,3.9l5.9,8.8Z"/>
    </g>
    <g>
      <path class="st0" d="M241.9,11.5c2.7,0,5.7-2.3,6.6-5.2,1-3.4-.9-6.3-4-6.3s-5.8,2.3-6.7,5.3c-1,3.4.9,6.2,4.1,6.2ZM241,6.3c.5-1.6,2.1-3,3.5-3s1.2.6.8,1.9c-.5,1.6-2.1,2.8-3.4,2.8s-1.3-.6-.9-1.8Z"/>
      <path class="st0" d="M266.6,39.3c-6,1.8-10.6,2.8-13.5,2.8-4,0-5.7-1.2-5.7-3.7,0-4.9,5-13.4,6.5-15.6l-1-.6-1.6-1.5-4.1,4.1c-1.3-3.1-4.5-5-8.3-5-7.8,0-16.4,9-16.4,16.8s1.6,6.1,4.1,6.1c5.2,0,13.4-6.6,19.5-12.3-1.2,2.7-2.1,5.7-2.1,8.1,0,4.5,3.4,7.1,9,7.1s8-1,13.5-2.6v-3.5ZM226.6,39.1c-.3,0-.8-1.3-.8-2.7,0-5.8,7.2-13.4,13-13.4s5.2,1.8,5.6,4.3c-5.8,5.4-13.6,11.9-17.8,11.9Z"/>
    </g>
  </g>
  <g>
    <path class="st1" d="M.5,108.5s0,0,0-.1v-9s0,0,0-.1,0,0,.1,0h3.3c.7,0,1.2.1,1.8.4s.9.6,1.2,1c.3.4.4.9.4,1.5v3.7c0,.6-.1,1.1-.4,1.5s-.7.8-1.2,1c-.5.2-1.1.4-1.8.4H.6s0,0-.1,0ZM2.4,106.9h1.6c.4,0,.7-.1,1-.4.3-.3.4-.6.4-1.1v-3.1c0-.5-.1-.8-.4-1.1-.3-.3-.6-.4-1-.4h-1.6s0,0,0,0v6s0,0,0,0Z"/>
    <path class="st1" d="M15.1,100.8s0,0-.1,0h-4.4s0,0,0,0v2.1s0,0,0,0h2.9s0,0,.1,0c0,0,0,0,0,.1v1.3s0,0,0,.1c0,0,0,0-.1,0h-2.9s0,0,0,0v2.2s0,0,0,0h4.4s0,0,.1,0,0,0,0,.1v1.3s0,0,0,.1,0,0-.1,0h-6.2s0,0-.1,0,0,0,0-.1v-9s0,0,0-.1,0,0,.1,0h6.2s0,0,.1,0,0,0,0,.1v1.3s0,0,0,.1Z"/>
    <path class="st1" d="M23,99.3s0,0,0,.1v1.3s0,0,0,.1,0,0-.1,0h-2.4s0,0,0,0v7.5s0,0,0,.1,0,0-.1,0h-1.6s0,0-.1,0,0,0,0-.1v-7.5s0,0,0,0h-2.3s0,0-.1,0,0,0,0-.1v-1.3s0,0,0-.1,0,0,.1,0h6.7s0,0,.1,0Z"/>
    <path class="st1" d="M32.4,99.3s0,0,.1,0h1.6s0,0,.1,0,0,0,0,.1v9s0,0,0,.1,0,0-.1,0h-1.5c0,0-.2,0-.2-.1l-3.5-5.7s0,0,0,0c0,0,0,0,0,0v5.6s0,0,0,.1,0,0-.1,0h-1.6s0,0-.1,0,0,0,0-.1v-9s0,0,0-.1,0,0,.1,0h1.5c0,0,.2,0,.2.1l3.4,5.7s0,0,0,0c0,0,0,0,0,0v-5.6s0,0,0-.1Z"/>
    <path class="st1" d="M38.2,108.5s0,0,0-.1v-3.4s0,0,0,0l-2.7-5.5s0,0,0,0c0,0,0-.1.1-.1h1.7c0,0,.2,0,.2.1l1.7,3.5c0,0,0,0,0,0l1.7-3.5c0,0,0-.1.2-.1h1.7c0,0,.1,0,.1,0s0,0,0,.1l-2.8,5.5s0,0,0,0v3.4s0,0,0,.1,0,0-.1,0h-1.5s0,0-.1,0Z"/>
    <path class="st1" d="M50.4,100.8s0,0-.1,0h-4.4s0,0,0,0v2.1s0,0,0,0h2.9s0,0,.1,0,0,0,0,.1v1.3s0,0,0,.1,0,0-.1,0h-2.9s0,0,0,0v2.2s0,0,0,0h4.4s0,0,.1,0,0,0,0,.1v1.3s0,0,0,.1,0,0-.1,0h-6.2s0,0-.1,0,0,0,0-.1v-9s0,0,0-.1,0,0,.1,0h6.2s0,0,.1,0,0,0,0,.1v1.3s0,0,0,.1Z"/>
    <path class="st1" d="M61,99.3s0,0,0,.1v1.3s0,0,0,.1,0,0-.1,0h-2.4s0,0,0,0v7.5s0,0,0,.1,0,0-.1,0h-1.6s0,0-.1,0,0,0,0-.1v-7.5s0,0,0,0h-2.3s0,0-.1,0,0,0,0-.1v-1.3s0,0,0-.1,0,0,.1,0h6.7s0,0,.1,0Z"/>
    <path class="st1" d="M68.6,100.8s0,0-.1,0h-4.4s0,0,0,0v2.1s0,0,0,0h2.9s0,0,.1,0,0,0,0,.1v1.3s0,0,0,.1,0,0-.1,0h-2.9s0,0,0,0v2.2s0,0,0,0h4.4s0,0,.1,0,0,0,0,.1v1.3s0,0,0,.1,0,0-.1,0h-6.2s0,0-.1,0,0,0,0-.1v-9s0,0,0-.1,0,0,.1,0h6.2s0,0,.1,0,0,0,0,.1v1.3s0,0,0,.1Z"/>
    <path class="st1" d="M71.3,108.3c-.5-.2-.9-.6-1.2-1-.3-.4-.4-.9-.4-1.5v-.3s0,0,0-.1c0,0,0,0,.1,0h1.5s0,0,.1,0c0,0,0,0,0,.1v.2c0,.4.2.7.5.9.3.2.8.4,1.3.4s.8,0,1.1-.3c.2-.2.3-.4.3-.7s0-.4-.2-.5c-.1-.1-.3-.3-.6-.4s-.6-.3-1.2-.5c-.6-.2-1.1-.4-1.5-.6-.4-.2-.8-.5-1-.9-.3-.4-.4-.8-.4-1.4s.1-1,.4-1.4c.3-.4.7-.7,1.1-.9.5-.2,1.1-.3,1.7-.3s1.3.1,1.8.4c.5.2.9.6,1.2,1,.3.4.4.9.4,1.5v.2s0,0,0,.1,0,0-.1,0h-1.5s0,0-.1,0c0,0,0,0,0-.1h0c0-.5-.2-.8-.5-1.1-.3-.3-.7-.4-1.3-.4s-.7,0-1,.3c-.2.2-.4.4-.4.7s0,.4.2.6c.1.2.3.3.6.4.3.1.7.3,1.3.5.6.2,1.1.4,1.5.6.4.2.7.4,1,.8s.4.8.4,1.4c0,.8-.3,1.5-.9,2-.6.5-1.4.7-2.5.7s-1.3-.1-1.9-.3Z"/>
    <path class="st1" d="M84.3,99.3s0,0,0,.1v1.3s0,0,0,.1,0,0-.1,0h-2.4s0,0,0,0v7.5s0,0,0,.1,0,0-.1,0h-1.6s0,0-.1,0,0,0,0-.1v-7.5s0,0,0,0h-2.3s0,0-.1,0,0,0,0-.1v-1.3s0,0,0-.1,0,0,.1,0h6.7s0,0,.1,0Z"/>
    <path class="st1" d="M90.5,108.4l-.4-1.3s0,0,0,0h-3.3s0,0,0,0l-.4,1.3c0,0,0,.1-.2.1h-1.7c0,0,0,0-.1,0,0,0,0,0,0-.1l2.9-9c0,0,0-.1.2-.1h2.1c0,0,.1,0,.2.1l2.9,9s0,0,0,0c0,0,0,.1-.1.1h-1.7c0,0-.1,0-.2-.1ZM87.2,105.6h2.3c0,0,0,0,0,0l-1.2-4s0,0,0,0,0,0,0,0l-1.2,4c0,0,0,0,0,0Z"/>
    <path class="st1" d="M99.9,99.2h1.6s0,0,.1,0,0,0,0,.1v9s0,0,0,.1,0,0-.1,0h-1.6s0,0-.1,0,0,0,0-.1v-5.9s0,0,0,0,0,0,0,0l-1.4,2.2c0,0-.1.1-.2.1h-.8c0,0-.1,0-.2-.1l-1.4-2.2s0,0,0,0c0,0,0,0,0,0v5.9s0,0,0,.1,0,0-.1,0h-1.6s0,0-.1,0,0,0,0-.1v-9s0,0,0-.1,0,0,.1,0h1.6c0,0,.1,0,.2.1l2,3.1c0,0,0,0,0,0l2-3.1c0,0,.1-.1.2-.1Z"/>
    <path class="st1" d="M109.6,100.8s0,0-.1,0h-4.4s0,0,0,0v2.1s0,0,0,0h2.9s0,0,.1,0c0,0,0,0,0,.1v1.3s0,0,0,.1c0,0,0,0-.1,0h-2.9s0,0,0,0v2.2s0,0,0,0h4.4s0,0,.1,0,0,0,0,.1v1.3s0,0,0,.1,0,0-.1,0h-6.2s0,0-.1,0,0,0,0-.1v-9s0,0,0-.1,0,0,.1,0h6.2s0,0,.1,0,0,0,0,.1v1.3s0,0,0,.1Z"/>
    <path class="st1" d="M116.4,99.3s0,0,.1,0h1.6s0,0,.1,0,0,0,0,.1v9s0,0,0,.1,0,0-.1,0h-1.5c0,0-.2,0-.2-.1l-3.5-5.7s0,0,0,0c0,0,0,0,0,0v5.6s0,0,0,.1,0,0-.1,0h-1.6s0,0-.1,0,0,0,0-.1v-9s0,0,0-.1,0,0,.1,0h1.5c0,0,.2,0,.2.1l3.4,5.7s0,0,0,0c0,0,0,0,0,0v-5.6s0,0,0-.1Z"/>
    <path class="st1" d="M126.4,99.3s0,0,0,.1v1.3s0,0,0,.1,0,0-.1,0h-2.4s0,0,0,0v7.5s0,0,0,.1,0,0-.1,0h-1.6s0,0-.1,0,0,0,0-.1v-7.5s0,0,0,0h-2.3s0,0-.1,0,0,0,0-.1v-1.3s0,0,0-.1,0,0,.1,0h6.7s0,0,.1,0Z"/>
    <path class="st1" d="M134.1,100.8s0,0-.1,0h-4.4s0,0,0,0v2.1s0,0,0,0h2.9s0,0,.1,0,0,0,0,.1v1.3s0,0,0,.1,0,0-.1,0h-2.9s0,0,0,0v2.2s0,0,0,0h4.4s0,0,.1,0,0,0,0,.1v1.3s0,0,0,.1,0,0-.1,0h-6.2s0,0-.1,0,0,0,0-.1v-9s0,0,0-.1,0,0,.1,0h6.2s0,0,.1,0,0,0,0,.1v1.3s0,0,0,.1Z"/>
    <path class="st1" d="M142,99.3s0,0,0,.1v1.3s0,0,0,.1,0,0-.1,0h-2.4s0,0,0,0v7.5s0,0,0,.1,0,0-.1,0h-1.6s0,0-.1,0,0,0,0-.1v-7.5s0,0,0,0h-2.3s0,0-.1,0,0,0,0-.1v-1.3s0,0,0-.1,0,0,.1,0h6.7s0,0,.1,0Z"/>
    <path class="st1" d="M151.3,99.6c.4.2.8.6,1,1s.4.9.4,1.5-.1,1.1-.4,1.5c-.3.4-.6.8-1.1,1-.5.2-1,.4-1.6.4h-1.9s0,0,0,0v3.4s0,0,0,.1,0,0-.1,0h-1.6s0,0-.1,0,0,0,0-.1v-9s0,0,0-.1c0,0,0,0,.1,0h3.8c.6,0,1.1.1,1.5.4ZM150.4,103.1c.2-.2.4-.5.4-.9s-.1-.7-.4-.9c-.2-.2-.6-.4-1-.4h-1.7s0,0,0,0v2.5s0,0,0,0h1.7c.4,0,.7-.1,1-.4Z"/>
    <path class="st1" d="M158.8,108.4l-.4-1.3s0,0,0,0h-3.3s0,0,0,0l-.4,1.3c0,0,0,.1-.2.1h-1.7c0,0,0,0-.1,0,0,0,0,0,0-.1l2.9-9c0,0,0-.1.2-.1h2.1c0,0,.1,0,.2.1l2.9,9s0,0,0,0c0,0,0,.1-.1.1h-1.7c0,0-.1,0-.2-.1ZM155.5,98.1c-.3-.3-.5-.7-.5-1.2s.2-.9.5-1.2c.3-.3.7-.5,1.2-.5s.9.2,1.2.5c.3.3.5.7.5,1.2s-.2.9-.5,1.2c-.3.3-.7.5-1.2.5s-.9-.2-1.2-.5ZM155.6,105.6h2.3c0,0,0,0,0,0l-1.2-4s0,0,0,0,0,0,0,0l-1.2,4c0,0,0,0,0,0ZM157.2,97.4c.1-.1.2-.3.2-.5s0-.4-.2-.5-.3-.2-.5-.2-.3,0-.5.2c-.1.1-.2.3-.2.5s0,.3.2.5c.1.1.3.2.5.2s.3,0,.5-.2Z"/>
    <path class="st1" d="M171.1,100.8s0,0-.1,0h-4.4s0,0,0,0v2.1s0,0,0,0h2.9s0,0,.1,0c0,0,0,0,0,.1v1.3s0,0,0,.1c0,0,0,0-.1,0h-2.9s0,0,0,0v3.7s0,0,0,.1,0,0-.1,0h-1.6s0,0-.1,0,0,0,0-.1v-9s0,0,0-.1,0,0,.1,0h6.1s0,0,.1,0,0,0,0,.1v1.3s0,0,0,.1Z"/>
    <path class="st1" d="M178.6,100.8s0,0-.1,0h-4.4s0,0,0,0v2.1s0,0,0,0h2.9s0,0,.1,0c0,0,0,0,0,.1v1.3s0,0,0,.1c0,0,0,0-.1,0h-2.9s0,0,0,0v2.2s0,0,0,0h4.4s0,0,.1,0,0,0,0,.1v1.3s0,0,0,.1,0,0-.1,0h-6.2s0,0-.1,0,0,0,0-.1v-9s0,0,0-.1,0,0,.1,0h6.2s0,0,.1,0,0,0,0,.1v1.3s0,0,0,.1Z"/>
    <path class="st1" d="M186.1,99.2h1.6s0,0,.1,0,0,0,0,.1v9s0,0,0,.1,0,0-.1,0h-1.6s0,0-.1,0,0,0,0-.1v-5.9s0,0,0,0,0,0,0,0l-1.4,2.2c0,0-.1.1-.2.1h-.8c0,0-.1,0-.2-.1l-1.4-2.2s0,0,0,0c0,0,0,0,0,0v5.9s0,0,0,.1,0,0-.1,0h-1.6s0,0-.1,0,0,0,0-.1v-9s0,0,0-.1,0,0,.1,0h1.6c0,0,.1,0,.2.1l2,3.1c0,0,0,0,0,0l2-3.1c0,0,.1-.1.2-.1Z"/>
    <path class="st1" d="M198.3,99.2h1.6s0,0,.1,0,0,0,0,.1v9s0,0,0,.1,0,0-.1,0h-1.6s0,0-.1,0,0,0,0-.1v-5.9s0,0,0,0,0,0,0,0l-1.4,2.2c0,0-.1.1-.2.1h-.8c0,0-.1,0-.2-.1l-1.4-2.2s0,0,0,0c0,0,0,0,0,0v5.9s0,0,0,.1,0,0-.1,0h-1.6s0,0-.1,0,0,0,0-.1v-9s0,0,0-.1,0,0,.1,0h1.6c0,0,.1,0,.2.1l2,3.1c0,0,0,0,0,0l2-3.1c0,0,.1-.1.2-.1Z"/>
    <path class="st1" d="M207.4,108.4l-.4-1.3s0,0,0,0h-3.3s0,0,0,0l-.4,1.3c0,0,0,.1-.2.1h-1.7c0,0,0,0-.1,0s0,0,0-.1l2.9-9c0,0,0-.1.2-.1h2.1c0,0,.1,0,.2.1l2.9,9s0,0,0,0c0,0,0,.1-.1.1h-1.7c0,0-.1,0-.2-.1ZM204.1,98.1c-.3-.3-.5-.7-.5-1.2s.2-.9.5-1.2c.3-.3.7-.5,1.2-.5s.9.2,1.2.5c.3.3.5.7.5,1.2s-.2.9-.5,1.2c-.3.3-.7.5-1.2.5s-.9-.2-1.2-.5ZM204.1,105.6h2.3c0,0,0,0,0,0l-1.2-4s0,0,0,0,0,0,0,0l-1.2,4c0,0,0,0,0,0ZM205.8,97.4c.1-.1.2-.3.2-.5s0-.4-.2-.5c-.1-.1-.3-.2-.5-.2s-.3,0-.5.2-.2.3-.2.5,0,.3.2.5c.1.1.3.2.5.2s.3,0,.5-.2Z"/>
    <path class="st1" d="M216,99.3s0,0,.1,0h1.6s0,0,.1,0,0,0,0,.1v9s0,0,0,.1,0,0-.1,0h-1.5c0,0-.2,0-.2-.1l-3.5-5.7s0,0,0,0c0,0,0,0,0,0v5.6s0,0,0,.1,0,0-.1,0h-1.6s0,0-.1,0,0,0,0-.1v-9s0,0,0-.1,0,0,.1,0h1.5c0,0,.2,0,.2.1l3.4,5.7s0,0,0,0c0,0,0,0,0,0v-5.6s0,0,0-.1Z"/>
    <path class="st1" d="M225.8,100.8s0,0-.1,0h-4.4s0,0,0,0v2.1s0,0,0,0h2.9s0,0,.1,0,0,0,0,.1v1.3s0,0,0,.1,0,0-.1,0h-2.9s0,0,0,0v2.2s0,0,0,0h4.4s0,0,.1,0,0,0,0,.1v1.3s0,0,0,.1,0,0-.1,0h-6.2s0,0-.1,0,0,0,0-.1v-9s0,0,0-.1,0,0,.1,0h6.2s0,0,.1,0,0,0,0,.1v1.3s0,0,0,.1Z"/>
    <path class="st1" d="M227.2,108.5s0,0,0-.1v-9s0,0,0-.1,0,0,.1,0h3.3c.7,0,1.2.1,1.8.4s.9.6,1.2,1c.3.4.4.9.4,1.5v3.7c0,.6-.1,1.1-.4,1.5s-.7.8-1.2,1c-.5.2-1.1.4-1.8.4h-3.3s0,0-.1,0ZM229.1,106.9h1.6c.4,0,.7-.1,1-.4s.4-.6.4-1.1v-3.1c0-.5-.1-.8-.4-1.1-.3-.3-.6-.4-1-.4h-1.6s0,0,0,0v6s0,0,0,0Z"/>
    <path class="st1" d="M241.8,100.8s0,0-.1,0h-4.4s0,0,0,0v2.1s0,0,0,0h2.9s0,0,.1,0,0,0,0,.1v1.3s0,0,0,.1,0,0-.1,0h-2.9s0,0,0,0v2.2s0,0,0,0h4.4s0,0,.1,0,0,0,0,.1v1.3s0,0,0,.1,0,0-.1,0h-6.2s0,0-.1,0,0,0,0-.1v-9s0,0,0-.1,0,0,.1,0h6.2s0,0,.1,0,0,0,0,.1v1.3s0,0,0,.1Z"/>
    <path class="st1" d="M248.1,108.4l-1.7-3.7s0,0,0,0h-1.2s0,0,0,0v3.6s0,0,0,.1,0,0-.1,0h-1.6s0,0-.1,0,0,0,0-.1v-9s0,0,0-.1,0,0,.1,0h3.8c.6,0,1.1.1,1.5.3.4.2.8.6,1,1,.2.4.4.9.4,1.5s-.2,1.1-.5,1.6c-.3.4-.7.7-1.3.9,0,0,0,0,0,0l1.8,3.8s0,0,0,0c0,0,0,.1-.1.1h-1.6c0,0-.2,0-.2-.1ZM245.1,100.9v2.3s0,0,0,0h1.7c.4,0,.7-.1.9-.3.2-.2.4-.5.4-.9s-.1-.6-.4-.9c-.2-.2-.5-.3-.9-.3h-1.7s0,0,0,0Z"/>
  </g>
</svg>