<?xml version="1.0" encoding="UTF-8"?>
<svg id="Layer_1" xmlns="http://www.w3.org/2000/svg" version="1.1" viewBox="0 0 1016.5 198">
  <!-- Generator: Adobe Illustrator 29.2.1, SVG Export Plug-In . SVG Version: 2.1.0 Build 116)  -->
  <defs>
    <style>
      .st0 {
        fill: #294d31;
      }
    </style>
  </defs>
  <path class="st0" d="M1016.5,168.7c-33,11.1-67.2,14.2-101.7,15.8-53.3,2.5-101.3-10.4-153.4-17.2-36.2-4.7-74.4,3-110.1,7.6-60,7.8-118.9,24.9-179.9,22.8-68.8-2.3-129-43.9-197.5-35.4-90.7,11.2-186.5,58.4-273.9,12.9,0,0,0-162,0-162,65.5,34.1,139.3,15.3,207.1-.2C232.7,7.3,257.7.8,284.2,0c32.4-.8,62.4,6.2,93.1,15.4,30.8,9.3,61.8,19.2,94.1,20.3,75.6,2.6,150.3-21,225-29.2,15.1-1.7,30.2-2.6,45.4-2.1,58.2,1.7,114.3,20.8,173,18.1,34.5-1.6,68.7-4.7,101.7-15.8v162Z"/>
</svg>