<?xml version="1.0" encoding="UTF-8"?>
<svg id="Layer_1" xmlns="http://www.w3.org/2000/svg" version="1.1" viewBox="0 0 845.4 43">
  <!-- Generator: Adobe Illustrator 29.2.1, SVG Export Plug-In . SVG Version: 2.1.0 Build 116)  -->
  <defs>
    <style>
      .st0 {
        fill: #fff;
      }
    </style>
  </defs>
  <path class="st0" d="M10.2,31.7c-2.2.2-5.3.4-6.4,0-.8-.2-1.1-.7-.9-1.3,0-.3.3-.7.6-1-1,.5-2.4,1.1-3.1.9-.3-.1-.4-.5-.3-1,.3-1,1.8-1.9,2.9-1.6.5.2.9.5.9,1l.7-.4v.3c.1,0,.3.1.3.1-.3.2-1.3,1.2-1.5,1.8-.1.3,0,.6.6.7.9.3,3.2.2,6.3-.1v.5ZM.5,29.9c.6.2,1.9-.4,2.9-.9,0-.3-.2-.7-.6-.8-.8-.2-2,.5-2.3,1.3,0,.2,0,.4,0,.4ZM3.3,25.8c.2-.4.7-.6,1.1-.4.4.1.6.6.3,1-.2.3-.7.5-1.1.4-.4-.1-.6-.6-.3-1ZM3.8,26.3c.2,0,.4,0,.6-.2.1-.2,0-.3,0-.3-.2,0-.5,0-.6.3,0,.1,0,.2,0,.3Z"/>
  <path class="st0" d="M20.3,34.1c-2.2.4-5.2.8-6.4.5-.8-.2-1.1-.6-1-1.3,0-.3.3-.7.5-1-1,.6-2.3,1.2-3,1-.3,0-.5-.5-.4-1,.2-1.1,1.7-2,2.8-1.8.5.1.9.5,1,.9l.7-.4.2.3h.1c-.3.4-1.2,1.4-1.4,2,0,.3.1.6.7.7.9.2,3.2,0,6.2-.5v.5ZM10.5,32.9c.6.1,1.8-.5,2.8-1,0-.3-.2-.7-.6-.8-.8-.2-2,.6-2.2,1.4,0,.2,0,.4,0,.4ZM13.1,28.6c.2-.4.7-.6,1.1-.5.4,0,.6.6.3,1-.2.4-.7.6-1.1.5-.4-.1-.6-.6-.4-1ZM13.6,29.1c.2,0,.4,0,.5-.3,0-.2,0-.3,0-.3-.2,0-.4,0-.6.3,0,.1,0,.2,0,.3Z"/>
  <path class="st0" d="M30.5,35.9c-2.2.5-5.2,1.1-6.4.9-.8-.1-1.2-.6-1.1-1.2,0-.3.3-.7.5-1.1-1,.6-2.3,1.3-3,1.2-.4,0-.5-.5-.4-.9.2-1.1,1.6-2.1,2.7-1.9.5,0,.9.4,1,.9l.7-.5.2.2h.1c-.2.4-1.1,1.4-1.3,2.1,0,.4.1.6.7.7.9.2,3.2-.2,6.2-.9v.5ZM20.7,35.2c.6.1,1.8-.6,2.7-1.2,0-.3-.3-.7-.7-.7-.8-.1-2,.7-2.1,1.5,0,.2,0,.4,0,.4ZM23,30.8c.2-.4.7-.6,1-.6.4,0,.6.5.4,1-.2.4-.7.6-1,.6-.4,0-.6-.5-.4-.9ZM23.5,31.3c.2,0,.4-.1.5-.3,0-.2,0-.3,0-.3-.2,0-.4.1-.5.3,0,.2,0,.2,0,.3Z"/>
  <path class="st0" d="M40.8,37.1c-2.1.6-5.1,1.4-6.3,1.2-.8,0-1.2-.5-1.1-1.1,0-.3.2-.7.4-1.1-.9.7-2.2,1.5-2.9,1.4-.4,0-.5-.5-.5-.9.1-1.1,1.5-2.2,2.5-2.1.5,0,.9.4,1.1.8l.6-.5.2.2h.1c-.2.4-1.1,1.5-1.2,2.2,0,.4.2.5.7.6.9.1,3.2-.3,6.1-1.2v.4ZM30.9,37c.6,0,1.8-.7,2.7-1.4,0-.3-.3-.6-.7-.7-.8,0-1.9.8-2,1.6,0,.2,0,.4,0,.4ZM33,32.5c.2-.4.6-.7,1-.6.4,0,.6.5.5.9-.2.4-.6.7-1,.6-.4,0-.7-.5-.5-.9ZM33.5,32.9c.2,0,.4-.1.5-.3,0-.2,0-.3,0-.3-.2,0-.4.1-.5.4,0,.2,0,.2,0,.3Z"/>
  <path class="st0" d="M51.1,37.7c-2.1.7-5,1.6-6.3,1.5-.8,0-1.2-.4-1.2-1.1,0-.3.2-.7.4-1.1-.9.7-2.1,1.6-2.8,1.5-.4,0-.5-.4-.5-.9,0-1.1,1.4-2.3,2.4-2.2.5,0,1,.3,1.1.8l.6-.5.2.2h.1c-.2.4-1,1.5-1,2.2,0,.4.2.5.8.6.9,0,3.1-.5,6.1-1.5l.2.4ZM41.2,38.2c.6,0,1.7-.8,2.6-1.5,0-.3-.3-.6-.7-.6-.8,0-1.9.9-1.9,1.7,0,.2,0,.4,0,.4ZM43,33.5c.2-.4.6-.7,1-.7.4,0,.7.5.5.9-.2.4-.6.7-1,.7-.4,0-.7-.4-.5-.9ZM43.6,34c.2,0,.4-.2.5-.4,0-.2,0-.3,0-.3-.2,0-.4.2-.5.4,0,.2,0,.2.1.3Z"/>
  <path class="st0" d="M61.3,37.9c-2.1.8-4.9,1.9-6.2,1.8-.8,0-1.3-.4-1.2-1,0-.3.1-.8.3-1.1-.9.8-2,1.7-2.7,1.7-.4,0-.6-.4-.6-.9,0-1.1,1.2-2.3,2.3-2.3.5,0,1,.3,1.1.7l.6-.6.2.2h.1c-.2.4-.9,1.6-.9,2.3,0,.4.2.5.8.5.9,0,3.1-.6,6-1.8l.2.4ZM51.5,38.8c.6,0,1.7-.9,2.5-1.6,0-.3-.4-.6-.8-.6-.8,0-1.8,1-1.9,1.8,0,.2,0,.4,0,.4ZM53.1,34.1c.1-.4.6-.7,1-.7.4,0,.7.4.5.9-.1.4-.6.7-.9.7-.4,0-.7-.4-.6-.9ZM53.7,34.5c.2,0,.4-.2.5-.4,0-.2,0-.3-.1-.3-.2,0-.4.2-.5.4,0,.2,0,.3.1.3Z"/>
  <path class="st0" d="M71.5,37.7c-2,.9-4.9,2.1-6.1,2.1-.8,0-1.3-.3-1.3-1,0-.3.1-.8.3-1.1-.8.8-2,1.8-2.7,1.8-.4,0-.6-.4-.6-.8,0-1.1,1.2-2.4,2.2-2.4.5,0,1,.2,1.2.7l.6-.6.2.2h.1c-.2.4-.9,1.6-.8,2.3,0,.4.2.5.8.5.9,0,3.1-.8,5.9-2l.2.4ZM61.7,39c.6,0,1.7-.9,2.4-1.7,0-.3-.4-.6-.8-.6-.8,0-1.8,1.1-1.8,1.9,0,.2,0,.4.1.4ZM63.2,34.2c.1-.4.5-.8.9-.8.4,0,.7.4.6.9-.1.4-.5.7-.9.7-.5,0-.7-.4-.6-.9ZM63.7,34.6c.2,0,.4-.2.5-.4,0-.2,0-.3-.1-.3-.2,0-.4.2-.5.4,0,.2,0,.3.1.2Z"/>
  <path class="st0" d="M81.7,37c-2,1-4.8,2.2-6,2.3-.8,0-1.3-.3-1.3-.9,0-.3,0-.8.2-1.2-.8.8-1.9,1.8-2.6,1.9-.4,0-.6-.4-.6-.8,0-1.1,1.1-2.4,2.1-2.5.5,0,1,.2,1.2.6l.5-.6.2.2h.1c-.2.4-.8,1.6-.8,2.3,0,.4.3.5.8.5.9,0,3-.9,5.8-2.3l.2.4ZM71.9,38.7c.6,0,1.6-1,2.4-1.8,0-.3-.4-.6-.8-.5-.8,0-1.7,1.2-1.7,2,0,.2,0,.4.1.4ZM73.2,33.9c0-.4.5-.8.9-.8.4,0,.7.4.6.8-.1.4-.5.8-.9.8-.4,0-.7-.4-.6-.8ZM73.8,34.3c.2,0,.4-.2.4-.4,0-.2,0-.3-.1-.3-.2,0-.4.2-.5.4,0,.2,0,.3.1.2Z"/>
  <path class="st0" d="M91.8,36.1c-2,1.1-4.7,2.4-5.9,2.5-.8,0-1.3-.2-1.3-.9,0-.3,0-.8.2-1.2-.8.9-1.8,1.9-2.5,2-.4,0-.6-.3-.7-.8-.1-1.1,1-2.4,2.1-2.5.5,0,1,.2,1.2.6l.5-.6.2.2h.2c-.2.4-.8,1.6-.7,2.3,0,.4.3.5.8.4.9,0,3-1,5.8-2.5l.2.4ZM82.1,38.1c.6,0,1.6-1.1,2.3-1.9,0-.3-.4-.6-.8-.5-.8,0-1.7,1.2-1.6,2,0,.2.1.4.1.4ZM83.2,33.2c0-.4.5-.8.9-.8.4,0,.7.3.6.8,0,.4-.5.8-.8.8-.4,0-.8-.3-.7-.8ZM83.8,33.6c.2,0,.4-.2.4-.4,0-.2,0-.3-.1-.3-.2,0-.4.2-.4.5,0,.2,0,.2.1.2Z"/>
  <path class="st0" d="M101.8,34.8c-1.9,1.1-4.6,2.5-5.9,2.7-.8,0-1.3-.2-1.4-.8,0-.3,0-.8.1-1.2-.7.9-1.8,1.9-2.5,2-.4,0-.6-.3-.7-.8-.1-1.1.9-2.5,2-2.6.5,0,1,.1,1.2.6l.5-.6.2.2h.2c-.2.4-.7,1.7-.6,2.3,0,.4.3.5.9.4.9-.1,3-1.1,5.7-2.6l.2.4ZM92.1,37.1c.6,0,1.6-1.1,2.3-2,0-.3-.4-.5-.8-.5-.8,0-1.7,1.3-1.6,2.1,0,.2.1.4.2.4ZM93.1,32.2c0-.4.4-.8.8-.8.4,0,.7.3.7.8,0,.4-.4.8-.8.8-.4,0-.8-.3-.7-.8ZM93.7,32.5c.2,0,.4-.2.4-.5,0-.2,0-.3-.1-.3-.2,0-.4.2-.4.5,0,.2,0,.3.2.2Z"/>
  <path class="st0" d="M111.6,33.3c-1.9,1.2-4.6,2.7-5.8,2.8-.8.1-1.3-.2-1.4-.8,0-.3,0-.8.1-1.2-.7.9-1.7,2-2.4,2.1-.4,0-.6-.3-.7-.8-.2-1.1.8-2.5,1.9-2.7.5,0,1,.1,1.2.5l.5-.7.2.2h.2c-.2.4-.7,1.7-.6,2.4,0,.4.3.5.9.4.9-.1,3-1.2,5.6-2.8l.2.4ZM102.1,35.8c.6,0,1.5-1.1,2.2-2-.1-.3-.5-.5-.9-.5-.8.1-1.6,1.3-1.5,2.1,0,.2.1.4.2.4ZM102.9,30.9c0-.4.4-.8.8-.9.4,0,.8.3.7.8,0,.4-.4.8-.8.8-.4,0-.8-.3-.7-.8ZM103.5,31.3c.2,0,.4-.2.4-.5,0-.2,0-.3-.1-.2-.2,0-.4.3-.4.5,0,.2,0,.2.2.2Z"/>
  <path class="st0" d="M121.2,31.7c-1.9,1.2-4.5,2.8-5.7,3-.8.1-1.3-.1-1.4-.8,0-.3,0-.8,0-1.2-.7.9-1.7,2-2.4,2.1-.4,0-.6-.3-.7-.7-.2-1.1.8-2.5,1.9-2.7.5,0,1,.1,1.3.5l.5-.7.2.2h.2c-.1.4-.6,1.7-.5,2.4,0,.4.3.5.9.4.9-.2,2.9-1.2,5.6-2.9l.2.4ZM111.7,34.4c.6-.1,1.5-1.2,2.2-2.1-.1-.3-.5-.5-.9-.5-.8.1-1.6,1.4-1.5,2.2,0,.2.1.4.2.4ZM112.4,29.5c0-.4.4-.8.8-.9.4,0,.8.3.7.8,0,.4-.4.8-.8.9-.4,0-.8-.3-.7-.8ZM113.1,29.8c.2,0,.4-.2.4-.5,0-.2,0-.3-.2-.2-.2,0-.4.3-.4.5,0,.2,0,.2.2.2Z"/>
  <path class="st0" d="M130.8,29.9c-1.9,1.2-4.5,2.8-5.7,3.1-.8.1-1.3-.1-1.4-.7,0-.3,0-.8,0-1.2-.7.9-1.6,2.1-2.4,2.2-.4,0-.6-.3-.7-.7-.2-1.1.8-2.5,1.8-2.7.5,0,1,0,1.3.5l.5-.7.3.2h.2c-.1.4-.6,1.7-.5,2.4,0,.4.3.5.9.4.9-.2,2.9-1.3,5.5-3l.3.4ZM121.3,32.7c.6-.1,1.5-1.2,2.1-2.1-.1-.3-.5-.5-.9-.4-.8.2-1.6,1.4-1.4,2.2,0,.2.1.4.2.4ZM122,27.8c0-.4.4-.8.8-.9.4,0,.8.3.7.8,0,.4-.4.8-.8.9-.4,0-.8-.3-.7-.7ZM122.6,28.1c.2,0,.4-.2.4-.5,0-.2,0-.3-.2-.2-.2,0-.4.3-.4.5,0,.2,0,.2.2.2Z"/>
  <path class="st0" d="M140.3,27.9c-1.8,1.3-4.4,2.9-5.6,3.1-.8.2-1.3-.1-1.4-.7,0-.3,0-.8,0-1.2-.7.9-1.6,2.1-2.3,2.2-.4,0-.6-.3-.7-.7-.2-1.1.7-2.5,1.8-2.8.5-.1,1,0,1.3.5l.4-.7.3.2h.2c-.1.4-.6,1.7-.4,2.4,0,.4.3.5.9.4.9-.2,2.9-1.3,5.5-3.1l.3.4ZM130.9,30.9c.6-.1,1.5-1.2,2.1-2.1-.1-.3-.5-.5-.9-.4-.8.2-1.6,1.4-1.4,2.2,0,.2.1.4.2.3ZM131.5,26c0-.4.4-.8.8-.9.4,0,.8.3.7.8,0,.4-.4.8-.8.9-.4,0-.8-.2-.7-.7ZM132.1,26.2c.2,0,.4-.3.4-.5,0-.2,0-.3-.2-.2-.2,0-.4.3-.4.5,0,.2,0,.2.2.2Z"/>
  <path class="st0" d="M149.8,25.8c-1.8,1.3-4.4,2.9-5.6,3.2-.8.2-1.3,0-1.4-.7,0-.3,0-.8,0-1.2-.7,1-1.6,2.1-2.3,2.2-.4,0-.6-.3-.7-.7-.2-1.1.7-2.5,1.7-2.8.5-.1,1,0,1.3.4l.4-.7.3.2h.2c-.1.4-.6,1.7-.4,2.4,0,.4.3.5.9.3.9-.2,2.9-1.3,5.4-3.1l.3.4ZM140.5,28.9c.6-.1,1.4-1.2,2.1-2.1-.1-.3-.5-.5-.9-.4-.8.2-1.6,1.4-1.4,2.2,0,.2.2.4.2.3ZM141,24c0-.4.4-.8.8-.9.4,0,.8.3.7.7,0,.4-.4.8-.7.9-.4,0-.8-.2-.7-.7ZM141.6,24.3c.2,0,.3-.3.4-.5,0-.2,0-.3-.2-.2-.2,0-.4.3-.4.5,0,.2,0,.2.2.2Z"/>
  <path class="st0" d="M159.4,23.7c-1.8,1.3-4.4,3-5.6,3.2-.8.2-1.3,0-1.4-.7s0-.8,0-1.2c-.7,1-1.6,2.1-2.3,2.3s-.6-.3-.7-.7c-.2-1.1.7-2.5,1.7-2.8.5-.1,1,0,1.3.4l.4-.7.3.2h.2c-.1.4-.6,1.7-.4,2.4,0,.4.3.5.9.3.9-.2,2.9-1.4,5.4-3.2l.3.4ZM150,26.9c.6-.1,1.4-1.2,2.1-2.2-.1-.3-.5-.5-.9-.4-.8.2-1.5,1.4-1.4,2.2,0,.2.2.4.2.3ZM150.5,22c0-.4.4-.8.8-.9.4,0,.8.3.7.7,0,.4-.4.8-.7.9-.4,0-.8-.2-.8-.7ZM151.1,22.2c.2,0,.3-.3.4-.5,0-.2,0-.3-.2-.2-.2,0-.4.3-.4.5s0,.2.2.2Z"/>
  <path class="st0" d="M168.9,21.5c-1.8,1.3-4.4,3-5.6,3.3-.8.2-1.3,0-1.4-.7,0-.3,0-.8,0-1.2-.6,1-1.6,2.1-2.3,2.3-.4,0-.7-.3-.8-.7-.2-1.1.7-2.5,1.7-2.8.5-.1,1,0,1.3.4l.4-.7.3.2h.2c-.1.4-.5,1.7-.4,2.4,0,.3.3.5.9.3.9-.2,2.9-1.4,5.4-3.2l.3.4ZM159.6,24.7c.6-.1,1.4-1.2,2.1-2.2-.1-.3-.5-.5-.9-.4-.8.2-1.5,1.4-1.4,2.2,0,.2.2.4.2.3ZM160,19.8c0-.4.4-.8.7-.9.4,0,.8.2.7.7,0,.4-.4.8-.7.9-.4.1-.8-.2-.8-.7ZM160.7,20.1c.2,0,.3-.3.4-.5,0-.2,0-.3-.2-.2-.2,0-.4.3-.4.5,0,.2,0,.2.2.2Z"/>
  <path class="st0" d="M178.5,19.3c-1.8,1.3-4.4,3-5.5,3.3-.8.2-1.3,0-1.4-.7,0-.3,0-.8,0-1.2-.6,1-1.6,2.1-2.3,2.3-.4,0-.7-.3-.8-.7-.2-1.1.7-2.6,1.7-2.8.5-.1,1,0,1.3.4l.4-.7.3.2h.2c-.1.4-.5,1.7-.4,2.4,0,.3.3.5.9.3.9-.2,2.9-1.4,5.4-3.2l.3.4ZM169.1,22.6c.6-.1,1.4-1.3,2.1-2.2-.1-.3-.5-.5-.9-.4-.8.2-1.5,1.4-1.4,2.2,0,.2.2.4.2.3ZM169.6,17.6c0-.4.4-.8.7-.9.4,0,.8.2.7.7,0,.4-.4.8-.7.9-.4,0-.8-.2-.8-.7ZM170.2,17.9c.2,0,.3-.3.4-.5,0-.2,0-.3-.2-.2-.2,0-.4.3-.4.5,0,.2,0,.2.2.2Z"/>
  <path class="st0" d="M188,17.1c-1.8,1.3-4.4,3-5.6,3.3-.8.2-1.3,0-1.4-.7,0-.3,0-.8,0-1.2-.6,1-1.6,2.1-2.3,2.3-.4,0-.7-.3-.8-.7-.2-1.1.7-2.5,1.7-2.8.5-.1,1,0,1.3.4l.4-.7.3.2h.2c-.1.4-.5,1.7-.4,2.4,0,.3.3.5.9.3.9-.2,2.9-1.4,5.4-3.2l.3.4ZM178.7,20.4c.6-.1,1.4-1.2,2.1-2.2-.1-.3-.5-.5-.9-.4-.8.2-1.5,1.4-1.4,2.2,0,.2.2.4.2.3ZM179.1,15.4c0-.4.4-.8.7-.9.4,0,.8.2.7.7,0,.4-.4.8-.7.9-.4.1-.8-.2-.8-.7ZM179.8,15.7c.2,0,.3-.3.4-.5,0-.2,0-.3-.2-.2-.2,0-.4.3-.4.5,0,.2,0,.2.2.2Z"/>
  <path class="st0" d="M197.6,15c-1.8,1.3-4.4,3-5.6,3.2-.8.2-1.3,0-1.4-.7s0-.8,0-1.2c-.7,1-1.6,2.1-2.3,2.3s-.6-.3-.7-.7c-.2-1.1.7-2.5,1.7-2.8.5-.1,1,0,1.3.4l.4-.7.3.2h.2c-.1.4-.6,1.7-.4,2.4,0,.4.3.5.9.3.9-.2,2.9-1.4,5.4-3.2l.3.4ZM188.2,18.2c.6-.1,1.4-1.2,2.1-2.2-.1-.3-.5-.5-.9-.4-.8.2-1.5,1.4-1.4,2.2,0,.2.2.4.2.3ZM188.7,13.2c0-.4.4-.8.8-.9.4,0,.8.3.7.7,0,.4-.4.8-.7.9-.4,0-.8-.2-.8-.7ZM189.4,13.5c.2,0,.3-.3.4-.5,0-.2,0-.3-.2-.2-.2,0-.4.3-.4.5s0,.2.2.2Z"/>
  <path class="st0" d="M207.2,12.9c-1.8,1.3-4.4,2.9-5.6,3.2-.8.2-1.3,0-1.4-.7,0-.3,0-.8,0-1.2-.7,1-1.6,2.1-2.3,2.2-.4,0-.6-.3-.7-.7-.2-1.1.7-2.5,1.7-2.8.5-.1,1,0,1.3.4l.4-.7.3.2h.2c-.1.4-.6,1.7-.4,2.4,0,.4.3.5.9.3.9-.2,2.9-1.3,5.4-3.1l.3.4ZM197.8,16c.6-.1,1.4-1.2,2.1-2.1-.1-.3-.5-.5-.9-.4-.8.2-1.6,1.4-1.4,2.2,0,.2.2.4.2.3ZM198.3,11.1c0-.4.4-.8.8-.9.4,0,.8.3.7.7,0,.4-.4.8-.7.9-.4,0-.8-.2-.7-.7ZM198.9,11.4c.2,0,.3-.3.4-.5,0-.2,0-.3-.2-.2-.2,0-.4.3-.4.5,0,.2,0,.2.2.2Z"/>
  <path class="st0" d="M216.8,11c-1.8,1.3-4.4,2.9-5.6,3.1-.8.2-1.3-.1-1.4-.7,0-.3,0-.8,0-1.2-.7.9-1.6,2.1-2.3,2.2-.4,0-.6-.3-.7-.7-.2-1.1.7-2.5,1.8-2.8.5-.1,1,0,1.3.5l.4-.7.3.2h.2c-.1.4-.6,1.7-.4,2.4,0,.4.3.5.9.4.9-.2,2.9-1.3,5.5-3.1l.3.4ZM207.3,14c.6-.1,1.5-1.2,2.1-2.1-.1-.3-.5-.5-.9-.4-.8.2-1.6,1.4-1.4,2.2,0,.2.1.4.2.3ZM207.9,9.1c0-.4.4-.8.8-.9.4,0,.8.3.7.8,0,.4-.4.8-.8.9-.4,0-.8-.2-.7-.7ZM208.5,9.3c.2,0,.4-.3.4-.5,0-.2,0-.3-.2-.2-.2,0-.4.3-.4.5,0,.2,0,.2.2.2Z"/>
  <path class="st0" d="M226.3,9.2c-1.9,1.2-4.5,2.8-5.7,3-.8.1-1.3-.1-1.4-.7,0-.3,0-.8,0-1.2-.7.9-1.6,2.1-2.4,2.2-.4,0-.6-.3-.7-.7-.2-1.1.8-2.5,1.8-2.7.5,0,1,0,1.3.5l.5-.7.3.2h.2c-.1.4-.6,1.7-.5,2.4,0,.4.3.5.9.4.9-.2,2.9-1.3,5.5-3l.3.4ZM216.9,12c.6-.1,1.5-1.2,2.1-2.1-.1-.3-.5-.5-.9-.4-.8.2-1.6,1.4-1.4,2.2,0,.2.1.4.2.4ZM217.5,7.1c0-.4.4-.8.8-.9.4,0,.8.3.7.8,0,.4-.4.8-.8.9-.4,0-.8-.3-.7-.7ZM218.1,7.4c.2,0,.4-.2.4-.5,0-.2,0-.3-.2-.2-.2,0-.4.3-.4.5,0,.2,0,.2.2.2Z"/>
  <path class="st0" d="M235.9,7.5c-1.9,1.2-4.5,2.7-5.7,3-.8.1-1.3-.1-1.4-.8,0-.3,0-.8,0-1.2-.7.9-1.7,2-2.4,2.1-.4,0-.6-.3-.7-.7-.2-1.1.8-2.5,1.9-2.7.5,0,1,.1,1.3.5l.5-.7.2.2h.2c-.1.4-.6,1.7-.5,2.4,0,.4.3.5.9.4.9-.2,2.9-1.2,5.6-2.9l.2.4ZM226.4,10.2c.6,0,1.5-1.2,2.2-2.1-.1-.3-.5-.5-.9-.5-.8.1-1.6,1.4-1.5,2.2,0,.2.1.4.2.4ZM227.2,5.3c0-.4.4-.8.8-.9.4,0,.8.3.7.8,0,.4-.4.8-.8.9-.4,0-.8-.3-.7-.8ZM227.8,5.6c.2,0,.4-.2.4-.5,0-.2,0-.3-.2-.2-.2,0-.4.3-.4.5,0,.2,0,.2.2.2Z"/>
  <path class="st0" d="M245.6,6.1c-1.9,1.2-4.6,2.6-5.8,2.8-.8.1-1.3-.2-1.4-.8,0-.3,0-.8.1-1.2-.7.9-1.7,2-2.4,2.1-.4,0-.6-.3-.7-.8-.2-1.1.8-2.5,1.9-2.7.5,0,1,.1,1.2.5l.5-.7.2.2h.2c-.2.4-.7,1.7-.6,2.4,0,.4.3.5.9.4.9-.1,3-1.2,5.6-2.8l.2.4ZM236,8.6c.6,0,1.5-1.1,2.2-2-.1-.3-.5-.5-.9-.5-.8.1-1.6,1.3-1.5,2.1,0,.2.1.4.2.4ZM236.9,3.7c0-.4.4-.8.8-.9.4,0,.8.3.7.8,0,.4-.4.8-.8.8-.4,0-.8-.3-.7-.8ZM237.5,4c.2,0,.4-.2.4-.5,0-.2,0-.3-.1-.3-.2,0-.4.3-.4.5,0,.2,0,.2.2.2Z"/>
  <path class="st0" d="M255.2,5c-1.9,1.1-4.7,2.5-5.9,2.6-.8,0-1.3-.2-1.4-.8,0-.3,0-.8.2-1.2-.8.9-1.8,1.9-2.5,2-.4,0-.6-.3-.7-.8-.1-1.1.9-2.5,2-2.6.5,0,1,.2,1.2.6l.5-.6.2.2h.2c-.2.4-.7,1.7-.7,2.3,0,.4.3.5.8.4.9,0,3-1,5.7-2.5l.2.4ZM245.6,7.1c.6,0,1.6-1.1,2.3-1.9,0-.3-.4-.5-.8-.5-.8,0-1.7,1.3-1.6,2.1,0,.2.1.4.1.4ZM246.6,2.2c0-.4.5-.8.8-.8.4,0,.7.3.7.8,0,.4-.5.8-.8.8-.4,0-.8-.3-.7-.8ZM247.2,2.6c.2,0,.4-.2.4-.4,0-.2,0-.3-.1-.3-.2,0-.4.2-.4.5,0,.2,0,.2.2.2Z"/>
  <path class="st0" d="M264.9,4.4c-2,1-4.8,2.2-6,2.3-.8,0-1.3-.3-1.3-.9,0-.3,0-.8.2-1.2-.8.8-1.9,1.8-2.6,1.9-.4,0-.6-.4-.6-.8,0-1.1,1.1-2.4,2.1-2.5.5,0,1,.2,1.2.6l.5-.6.2.2h.2c-.2.4-.8,1.6-.8,2.3,0,.4.3.5.8.5.9,0,3.1-.9,5.8-2.2l.2.4ZM255.1,6c.6,0,1.6-1,2.4-1.8,0-.3-.4-.6-.8-.5-.8,0-1.8,1.2-1.7,2,0,.2,0,.4.1.4ZM256.4,1.2c.1-.4.5-.8.9-.8.4,0,.7.4.6.8-.1.4-.5.8-.9.8-.5,0-.7-.4-.6-.8ZM257,1.6c.2,0,.4-.2.4-.4,0-.2,0-.3-.1-.3-.2,0-.4.2-.5.4,0,.2,0,.3.1.2Z"/>
  <path class="st0" d="M274.5,4.4c-2.1.9-4.9,1.9-6.1,1.9-.8,0-1.3-.4-1.3-1,0-.3.1-.8.3-1.1-.8.8-2,1.7-2.7,1.7-.4,0-.6-.4-.6-.8,0-1.1,1.2-2.3,2.3-2.3.5,0,1,.3,1.2.7l.6-.6.2.2h.1c-.2.4-.9,1.6-.9,2.3,0,.4.2.5.8.5.9,0,3.1-.7,6-1.9l.2.4ZM264.7,5.4c.6,0,1.7-.9,2.5-1.7,0-.3-.4-.6-.8-.6-.8,0-1.8,1.1-1.8,1.9,0,.2,0,.4.1.4ZM266.2.7c.1-.4.5-.7.9-.7.4,0,.7.4.6.9-.1.4-.5.7-.9.7-.5,0-.7-.4-.6-.9ZM266.8,1.1c.2,0,.4-.2.5-.4,0-.2,0-.3-.1-.3-.2,0-.4.2-.5.4,0,.2,0,.3.1.3Z"/>
  <path class="st0" d="M284.1,5c-2.1.7-5,1.7-6.2,1.6-.8,0-1.2-.4-1.2-1.1,0-.3.2-.7.4-1.1-.9.7-2.1,1.6-2.8,1.5s-.6-.4-.5-.9c0-1.1,1.3-2.3,2.4-2.2.5,0,1,.3,1.1.8l.6-.5.2.2h.1c-.2.4-1,1.5-1,2.2,0,.4.2.5.8.6.9,0,3.1-.5,6.1-1.6l.2.4ZM274.3,5.5c.6,0,1.7-.8,2.6-1.5,0-.3-.3-.6-.7-.6-.8,0-1.9,1-1.9,1.8,0,.2,0,.4,0,.4ZM276.1.9c.2-.4.6-.7,1-.7.4,0,.7.5.5.9-.1.4-.6.7-1,.7-.4,0-.7-.4-.5-.9ZM276.6,1.3c.2,0,.4-.2.5-.4,0-.2,0-.3,0-.3-.2,0-.4.2-.5.4,0,.2,0,.3.1.3Z"/>
  <path class="st0" d="M293.7,6.1c-2.1.6-5.1,1.4-6.3,1.3-.8,0-1.2-.5-1.1-1.1,0-.3.2-.7.4-1.1-.9.7-2.2,1.5-2.9,1.4-.4,0-.5-.5-.5-.9.1-1.1,1.5-2.2,2.5-2.1.5,0,.9.4,1.1.8l.6-.5.2.2h.1c-.2.4-1.1,1.5-1.1,2.2,0,.4.2.5.7.6.9,0,3.2-.4,6.1-1.2v.4ZM283.9,6.1c.6,0,1.8-.7,2.7-1.4,0-.3-.3-.6-.7-.7-.8,0-1.9.9-2,1.7,0,.2,0,.4,0,.4ZM285.9,1.5c.2-.4.6-.7,1-.6.4,0,.7.5.5.9-.2.4-.6.7-1,.6-.4,0-.7-.5-.5-.9ZM286.4,2c.2,0,.4-.1.5-.3,0-.2,0-.3,0-.3-.2,0-.4.2-.5.4,0,.2,0,.2,0,.3Z"/>
  <path class="st0" d="M303.3,7.6c-2.2.5-5.2,1.2-6.4,1-.8-.1-1.2-.6-1.1-1.2,0-.3.2-.7.5-1.1-1,.7-2.2,1.4-3,1.3-.4,0-.5-.5-.4-.9.2-1.1,1.6-2.1,2.6-2,.5,0,.9.4,1,.9l.7-.5.2.2h.1c-.2.4-1.1,1.4-1.2,2.1,0,.4.2.6.7.6.9.1,3.2-.2,6.2-1v.5ZM293.4,7.1c.6,0,1.8-.6,2.7-1.2,0-.3-.3-.6-.7-.7-.8-.1-2,.8-2.1,1.6,0,.2,0,.4,0,.4ZM295.7,2.7c.2-.4.6-.6,1-.6.4,0,.6.5.4,1-.2.4-.6.6-1,.6-.4,0-.6-.5-.4-.9ZM296.2,3.2c.2,0,.4-.1.5-.3,0-.2,0-.3,0-.3-.2,0-.4.1-.5.3,0,.2,0,.2,0,.3Z"/>
  <path class="st0" d="M312.8,9.5c-2.2.4-5.2,1-6.4.7-.8-.2-1.2-.6-1-1.2,0-.3.3-.7.5-1.1-1,.6-2.3,1.3-3,1.2-.4,0-.5-.5-.4-.9.2-1.1,1.6-2.1,2.7-1.9.5.1.9.5,1,.9l.7-.5.2.3h.1c-.3.4-1.2,1.4-1.3,2.1,0,.4.1.6.7.7.9.2,3.2,0,6.2-.7v.5ZM302.9,8.6c.6.1,1.8-.6,2.8-1.1,0-.3-.3-.7-.6-.7-.8-.2-2,.7-2.1,1.5,0,.2,0,.4,0,.4ZM305.4,4.3c.2-.4.7-.6,1.1-.5.4,0,.6.5.4,1-.2.4-.7.6-1,.5-.4,0-.6-.5-.4-1ZM305.9,4.8c.2,0,.4-.1.5-.3,0-.2,0-.3,0-.3-.2,0-.4.1-.6.3,0,.1,0,.2,0,.3Z"/>
  <path class="st0" d="M322.3,11.7c-2.2.4-5.2.8-6.4.5-.8-.2-1.1-.6-1-1.2,0-.3.3-.7.5-1-1,.6-2.3,1.2-3,1.1-.3,0-.5-.5-.4-1,.2-1.1,1.7-2,2.8-1.8.5.1.9.5,1,.9l.7-.4.2.3h.1c-.3.4-1.2,1.4-1.4,2,0,.3.1.6.7.7.9.2,3.2,0,6.2-.5v.5ZM312.4,10.5c.6.1,1.8-.5,2.8-1.1,0-.3-.2-.7-.6-.8-.8-.2-2,.6-2.2,1.4,0,.2,0,.4,0,.4ZM315,6.3c.2-.4.7-.6,1.1-.5.4,0,.6.6.3,1-.2.4-.7.6-1.1.5-.4-.1-.6-.5-.4-1ZM315.5,6.8c.2,0,.4,0,.5-.3,0-.2,0-.3,0-.3-.2,0-.4,0-.6.3,0,.1,0,.2,0,.3Z"/>
  <path class="st0" d="M331.7,14.2c-2.2.3-5.2.6-6.4.3-.8-.2-1.1-.7-1-1.3,0-.3.3-.7.6-1-1,.6-2.4,1.2-3.1,1-.3,0-.5-.5-.3-1,.3-1,1.8-2,2.8-1.7.5.1.9.5.9,1l.7-.4.2.3h.1c-.3.4-1.2,1.3-1.4,2,0,.3,0,.6.6.7.9.2,3.2,0,6.2-.3v.5ZM321.9,12.7c.6.2,1.8-.4,2.8-1,0-.3-.2-.7-.6-.8-.8-.2-2,.6-2.2,1.4,0,.2,0,.4,0,.4ZM324.6,8.6c.2-.4.7-.6,1.1-.5.4.1.6.6.3,1-.2.4-.7.6-1.1.5-.4-.1-.6-.6-.3-1ZM325.1,9.1c.2,0,.4,0,.6-.3,0-.2,0-.3,0-.3-.2,0-.5,0-.6.3,0,.1,0,.2,0,.3Z"/>
  <path class="st0" d="M341.1,16.8c-2.2.3-5.3.5-6.4.2-.8-.2-1.1-.7-.9-1.3,0-.3.3-.7.6-1-1,.5-2.4,1.1-3.1.9-.3,0-.4-.5-.3-1,.3-1,1.8-1.9,2.8-1.6.5.1.9.5.9,1l.7-.4v.3c.1,0,.3.1.3.1-.3.2-1.3,1.2-1.5,1.9,0,.3,0,.6.6.7.9.2,3.2.2,6.3-.2v.5ZM331.3,15.2c.6.2,1.9-.4,2.8-.9,0-.3-.2-.7-.6-.8-.8-.2-2,.5-2.3,1.3,0,.2,0,.4,0,.4ZM334.1,11.1c.2-.4.7-.6,1.1-.5.4.1.6.6.3,1-.2.3-.7.5-1.1.4-.4-.1-.6-.6-.3-1ZM334.5,11.6c.2,0,.4,0,.6-.3,0-.2,0-.3,0-.3-.2,0-.5,0-.6.3,0,.1,0,.2,0,.3Z"/>
  <path class="st0" d="M350.5,19.6c-2.2.2-5.3.5-6.4.1-.8-.2-1.1-.7-.9-1.3,0-.3.3-.7.6-1-1,.5-2.4,1.1-3.1.9-.3-.1-.4-.5-.3-1,.3-1,1.8-1.9,2.9-1.6.5.1.9.5.9,1l.7-.4v.3c.1,0,.3.1.3.1-.3.2-1.3,1.2-1.5,1.8-.1.3,0,.6.6.7.9.3,3.2.2,6.3-.1v.5ZM340.7,17.8c.6.2,1.9-.4,2.9-.9,0-.3-.2-.7-.6-.8-.8-.2-2,.5-2.3,1.3,0,.2,0,.4,0,.4ZM343.5,13.8c.2-.4.7-.6,1.1-.4.4.1.6.6.3,1-.2.3-.7.5-1.1.4-.4-.1-.6-.6-.3-1ZM344,14.3c.2,0,.4,0,.6-.2.1-.2,0-.3,0-.3-.2,0-.5,0-.6.3,0,.1,0,.2,0,.3Z"/>
  <path class="st0" d="M359.8,22.4c-2.2.2-5.3.4-6.4,0-.8-.2-1.1-.7-.9-1.3,0-.3.3-.7.6-1-1,.5-2.4,1.1-3.1.8-.3-.1-.4-.5-.3-1,.3-1,1.8-1.9,2.9-1.6.5.2.9.5.9,1l.7-.4v.3c.1,0,.3.1.3.1-.3.2-1.3,1.2-1.5,1.8-.1.3,0,.6.6.7.9.3,3.2.2,6.3-.1v.5ZM350.1,20.6c.6.2,1.9-.4,2.9-.9,0-.3-.2-.7-.6-.8-.8-.2-2,.5-2.3,1.3,0,.2,0,.4,0,.4ZM352.9,16.5c.2-.4.7-.5,1.1-.4.4.1.6.6.3,1-.2.3-.7.5-1.1.4-.4-.1-.6-.6-.3-1ZM353.4,17.1c.2,0,.4,0,.6-.2.1-.2,0-.3,0-.3-.2,0-.5,0-.6.3,0,.1,0,.2,0,.3Z"/>
  <path class="st0" d="M369.2,25.3c-2.2.2-5.3.4-6.4,0-.8-.2-1.1-.7-.9-1.3,0-.3.3-.7.6-1-1,.5-2.4,1.1-3.1.8-.3-.1-.4-.5-.3-1,.3-1,1.8-1.9,2.9-1.6.5.2.9.5.9,1l.7-.4v.3c.1,0,.3.1.3.1-.3.2-1.3,1.2-1.5,1.8-.1.3,0,.6.6.7.9.3,3.2.2,6.3,0v.5ZM359.5,23.5c.6.2,1.9-.4,2.9-.9,0-.3-.2-.7-.6-.8-.8-.2-2,.5-2.3,1.3,0,.2,0,.4,0,.4ZM362.3,19.4c.2-.4.7-.6,1.1-.4.4.1.6.6.3,1-.2.3-.7.5-1.1.4-.4-.1-.6-.6-.3-1ZM362.8,19.9c.2,0,.4,0,.6-.2.1-.2,0-.3,0-.3-.2,0-.5,0-.6.3,0,.1,0,.2,0,.3Z"/>
  <path class="st0" d="M378.6,28.1c-2.2.2-5.3.5-6.4.1-.8-.2-1.1-.7-.9-1.3,0-.3.3-.7.6-1-1,.5-2.4,1.1-3.1.9-.3-.1-.4-.5-.3-1,.3-1,1.8-1.9,2.9-1.6.5.1.9.5.9,1l.7-.4v.3c.1,0,.3.1.3.1-.3.2-1.3,1.2-1.5,1.8-.1.3,0,.6.6.7.9.3,3.2.2,6.3-.1v.5ZM368.8,26.3c.6.2,1.9-.4,2.9-.9,0-.3-.2-.7-.6-.8-.8-.2-2,.5-2.3,1.3,0,.2,0,.4,0,.4ZM371.7,22.2c.2-.4.7-.6,1.1-.4.4.1.6.6.3,1-.2.3-.7.5-1.1.4-.4-.1-.6-.6-.3-1ZM372.1,22.8c.2,0,.4,0,.6-.2.1-.2,0-.3,0-.3-.2,0-.5,0-.6.3,0,.1,0,.2,0,.3Z"/>
  <path class="st0" d="M388,30.7c-2.2.3-5.3.5-6.4.2-.8-.2-1.1-.7-.9-1.3,0-.3.3-.7.6-1-1,.5-2.4,1.1-3.1.9-.3,0-.4-.5-.3-1,.3-1,1.8-1.9,2.8-1.6.5.1.9.5.9,1l.7-.4v.3c.1,0,.3.1.3.1-.3.2-1.3,1.2-1.5,1.9,0,.3,0,.6.6.7.9.2,3.2.2,6.3-.2v.5ZM378.2,29.1c.6.2,1.9-.4,2.8-.9,0-.3-.2-.7-.6-.8-.8-.2-2,.5-2.3,1.3,0,.2,0,.4,0,.4ZM381,25c.2-.4.7-.6,1.1-.5.4.1.6.6.3,1-.2.3-.7.5-1.1.4-.4-.1-.6-.6-.3-1ZM381.4,25.5c.2,0,.4,0,.6-.3,0-.2,0-.3,0-.3-.2,0-.5,0-.6.3,0,.1,0,.2,0,.3Z"/>
  <path class="st0" d="M397.3,33.2c-2.2.3-5.2.6-6.4.3-.8-.2-1.1-.7-1-1.3,0-.3.3-.7.6-1-1,.6-2.4,1.1-3.1,1-.3,0-.5-.5-.3-1,.3-1,1.8-2,2.8-1.7.5.1.9.5.9,1l.7-.4.2.3h.1c-.3.4-1.2,1.3-1.4,2,0,.3,0,.6.6.7.9.2,3.2.1,6.2-.3v.5ZM387.6,31.7c.6.2,1.8-.4,2.8-1,0-.3-.2-.7-.6-.8-.8-.2-2,.6-2.2,1.3,0,.2,0,.4,0,.4ZM390.2,27.5c.2-.4.7-.6,1.1-.5.4.1.6.6.3,1-.2.3-.7.6-1.1.5-.4-.1-.6-.6-.3-1ZM390.7,28.1c.2,0,.4,0,.6-.3,0-.2,0-.3,0-.3-.2,0-.5,0-.6.3,0,.1,0,.2,0,.3Z"/>
  <path class="st0" d="M407,35.5c-2.2.4-5.2.8-6.4.5-.8-.2-1.1-.6-1-1.3,0-.3.3-.7.5-1-1,.6-2.3,1.2-3,1-.3,0-.5-.5-.4-1,.2-1.1,1.7-2,2.8-1.8.5.1.9.5,1,.9l.7-.4.2.3h.1c-.3.4-1.2,1.4-1.4,2,0,.3.1.6.7.7.9.2,3.2,0,6.2-.5v.5ZM397.2,34.2c.6.1,1.8-.5,2.8-1,0-.3-.2-.7-.6-.8-.8-.2-2,.6-2.2,1.4,0,.2,0,.4,0,.4ZM399.8,30c.2-.4.7-.6,1.1-.5.4,0,.6.6.3,1-.2.4-.7.6-1.1.5-.4-.1-.6-.6-.4-1ZM400.2,30.5c.2,0,.4,0,.5-.3,0-.2,0-.3,0-.3-.2,0-.4,0-.6.3,0,.1,0,.2,0,.3Z"/>
  <path class="st0" d="M416.9,37.5c-2.2.4-5.2.9-6.4.7-.8-.2-1.2-.6-1-1.2,0-.3.3-.7.5-1.1-1,.6-2.3,1.3-3,1.1-.4,0-.5-.5-.4-.9.2-1.1,1.6-2.1,2.7-1.8.5.1.9.5,1,.9l.7-.4.2.3h.1c-.3.4-1.2,1.4-1.3,2.1,0,.4.1.6.7.7.9.2,3.2,0,6.2-.7v.5ZM407,36.6c.6.1,1.8-.5,2.8-1.1,0-.3-.3-.7-.6-.7-.8-.2-2,.7-2.2,1.5,0,.2,0,.4,0,.4ZM409.5,32.3c.2-.4.7-.6,1.1-.5.4,0,.6.5.4,1-.2.4-.7.6-1,.5-.4,0-.6-.5-.4-1ZM410,32.8c.2,0,.4,0,.5-.3,0-.2,0-.3,0-.3-.2,0-.4.1-.6.3,0,.1,0,.2,0,.3Z"/>
  <path class="st0" d="M426.9,39.1c-2.2.5-5.2,1.1-6.4.9-.8-.1-1.2-.6-1.1-1.2,0-.3.2-.7.5-1.1-1,.6-2.2,1.4-3,1.3-.4,0-.5-.5-.4-.9.2-1.1,1.6-2.1,2.6-1.9.5,0,.9.4,1,.9l.7-.5.2.2h.1c-.2.4-1.1,1.4-1.2,2.1,0,.4.1.6.7.6.9.1,3.2-.2,6.2-.9v.5ZM417.1,38.6c.6,0,1.8-.6,2.7-1.2,0-.3-.3-.6-.7-.7-.8-.1-2,.8-2.1,1.6,0,.2,0,.4,0,.4ZM419.3,34.2c.2-.4.7-.6,1-.6.4,0,.6.5.4,1-.2.4-.6.6-1,.6-.4,0-.6-.5-.4-.9ZM419.9,34.7c.2,0,.4-.1.5-.3,0-.2,0-.3,0-.3-.2,0-.4.1-.5.3,0,.2,0,.2,0,.3Z"/>
  <path class="st0" d="M437.1,40.3c-2.1.6-5.1,1.4-6.3,1.2-.8,0-1.2-.5-1.1-1.1,0-.3.2-.7.4-1.1-.9.7-2.2,1.5-2.9,1.4-.4,0-.5-.5-.5-.9.1-1.1,1.5-2.2,2.5-2.1.5,0,.9.4,1.1.8l.6-.5.2.2h.1c-.2.4-1.1,1.5-1.1,2.2,0,.4.2.5.7.6.9.1,3.2-.3,6.1-1.2v.4ZM427.2,40.2c.6,0,1.8-.7,2.7-1.4,0-.3-.3-.6-.7-.7-.8,0-1.9.8-2,1.7,0,.2,0,.4,0,.4ZM429.3,35.7c.2-.4.6-.7,1-.6.4,0,.7.5.5.9-.2.4-.6.7-1,.6-.4,0-.7-.5-.5-.9ZM429.8,36.2c.2,0,.4-.1.5-.3,0-.2,0-.3,0-.3-.2,0-.4.2-.5.4,0,.2,0,.3,0,.3Z"/>
  <path class="st0" d="M447.4,41c-2.1.7-5,1.6-6.2,1.5-.8,0-1.2-.4-1.2-1.1,0-.3.2-.7.4-1.1-.9.7-2.1,1.6-2.8,1.5-.4,0-.6-.4-.5-.9,0-1.1,1.4-2.3,2.4-2.2.5,0,1,.3,1.1.8l.6-.5.2.2h.1c-.2.4-1,1.5-1,2.2,0,.4.2.5.8.6.9,0,3.1-.5,6.1-1.5l.2.4ZM437.5,41.4c.6,0,1.7-.8,2.6-1.5,0-.3-.3-.6-.7-.6-.8,0-1.9.9-1.9,1.8,0,.2,0,.4,0,.4ZM439.4,36.8c.2-.4.6-.7,1-.7.4,0,.7.5.5.9-.2.4-.6.7-1,.7-.4,0-.7-.4-.5-.9ZM439.9,37.2c.2,0,.4-.2.5-.4,0-.2,0-.3,0-.3-.2,0-.4.2-.5.4,0,.2,0,.3.1.3Z"/>
  <path class="st0" d="M457.6,41.1c-2.1.8-4.9,1.9-6.2,1.8-.8,0-1.3-.4-1.2-1,0-.3.1-.8.3-1.1-.9.8-2,1.7-2.7,1.7-.4,0-.6-.4-.6-.9,0-1.1,1.2-2.3,2.3-2.3.5,0,1,.3,1.1.7l.6-.6.2.2h.1c-.2.4-.9,1.6-.9,2.3,0,.4.2.5.8.5.9,0,3.1-.6,6-1.8l.2.4ZM447.8,42c.6,0,1.7-.9,2.5-1.6,0-.3-.4-.6-.8-.6-.8,0-1.8,1-1.9,1.8,0,.2,0,.4.1.4ZM449.4,37.3c.1-.4.6-.7.9-.7.4,0,.7.4.5.9-.1.4-.6.7-.9.7-.4,0-.7-.4-.6-.9ZM450,37.7c.2,0,.4-.2.5-.4,0-.2,0-.3-.1-.3-.2,0-.4.2-.5.4,0,.2,0,.3.1.3Z"/>
  <path class="st0" d="M467.7,41c-2,.9-4.9,2-6.1,2-.8,0-1.3-.3-1.3-1,0-.3.1-.8.3-1.1-.8.8-2,1.7-2.7,1.8-.4,0-.6-.4-.6-.8,0-1.1,1.2-2.4,2.3-2.4.5,0,1,.3,1.2.7l.6-.6.2.2h.1c-.2.4-.9,1.6-.9,2.3,0,.4.2.5.8.5.9,0,3.1-.7,5.9-2l.2.4ZM457.9,42.2c.6,0,1.7-.9,2.5-1.7,0-.3-.4-.6-.8-.6-.8,0-1.8,1.1-1.8,1.9,0,.2,0,.4.1.4ZM459.4,37.4c.1-.4.5-.7.9-.8.4,0,.7.4.6.9-.1.4-.5.7-.9.7-.4,0-.7-.4-.6-.9ZM460,37.8c.2,0,.4-.2.5-.4,0-.2,0-.3-.1-.3-.2,0-.4.2-.5.4,0,.2,0,.3.1.2Z"/>
  <path class="st0" d="M477.8,40.5c-2,1-4.8,2.2-6,2.2-.8,0-1.3-.3-1.3-.9,0-.3,0-.8.2-1.1-.8.8-1.9,1.8-2.6,1.8-.4,0-.6-.4-.6-.8,0-1.1,1.1-2.4,2.2-2.4.5,0,1,.2,1.2.7l.6-.6.2.2h.1c-.2.4-.8,1.6-.8,2.3,0,.4.3.5.8.5.9,0,3.1-.8,5.9-2.2l.2.4ZM468,42c.6,0,1.6-1,2.4-1.8,0-.3-.4-.6-.8-.6-.8,0-1.8,1.1-1.7,1.9,0,.2,0,.4.1.4ZM469.4,37.2c.1-.4.5-.8.9-.8.4,0,.7.4.6.9-.1.4-.5.7-.9.8-.4,0-.7-.4-.6-.8ZM470,37.6c.2,0,.4-.2.4-.4,0-.2,0-.3-.1-.3-.2,0-.4.2-.5.4s0,.3.1.2Z"/>
  <path class="st0" d="M487.8,39.8c-2,1-4.8,2.3-6,2.4-.8,0-1.3-.3-1.3-.9,0-.3,0-.8.2-1.2-.8.8-1.9,1.8-2.6,1.9-.4,0-.6-.4-.6-.8,0-1.1,1-2.4,2.1-2.5.5,0,1,.2,1.2.6l.5-.6.2.2h.1c-.2.4-.8,1.6-.7,2.3,0,.4.3.5.8.5.9,0,3-.9,5.8-2.3l.2.4ZM478.1,41.6c.6,0,1.6-1,2.4-1.8,0-.3-.4-.6-.8-.5-.8,0-1.7,1.2-1.7,2,0,.2,0,.4.1.4ZM479.3,36.7c0-.4.5-.8.9-.8.4,0,.7.4.6.8,0,.4-.5.8-.9.8-.4,0-.7-.3-.6-.8ZM479.9,37.1c.2,0,.4-.2.4-.4,0-.2,0-.3-.1-.3-.2,0-.4.2-.5.4,0,.2,0,.3.1.2Z"/>
  <path class="st0" d="M497.6,38.9c-2,1.1-4.7,2.4-5.9,2.5-.8,0-1.3-.2-1.3-.9,0-.3,0-.8.2-1.2-.8.9-1.8,1.9-2.5,2-.4,0-.6-.3-.7-.8-.1-1.1,1-2.4,2.1-2.5.5,0,1,.2,1.2.6l.5-.6.2.2h.2c-.2.4-.8,1.6-.7,2.3,0,.4.3.5.8.4.9,0,3-1,5.7-2.5l.2.4ZM488,40.9c.6,0,1.6-1.1,2.3-1.9,0-.3-.4-.6-.8-.5-.8,0-1.7,1.2-1.6,2,0,.2.1.4.1.4ZM489.1,36c0-.4.5-.8.9-.8.4,0,.7.3.6.8,0,.4-.5.8-.8.8-.4,0-.8-.3-.7-.8ZM489.7,36.4c.2,0,.4-.2.4-.4,0-.2,0-.3-.1-.3-.2,0-.4.2-.4.5,0,.2,0,.3.1.2Z"/>
  <path class="st0" d="M507.3,37.8c-1.9,1.1-4.7,2.5-5.9,2.6-.8,0-1.3-.2-1.4-.8,0-.3,0-.8.2-1.2-.8.9-1.8,1.9-2.5,2-.4,0-.6-.3-.7-.8-.1-1.1.9-2.5,2-2.6.5,0,1,.2,1.2.6l.5-.6.2.2h.2c-.2.4-.7,1.7-.6,2.3,0,.4.3.5.8.4.9-.1,3-1.1,5.7-2.6l.2.4ZM497.6,39.9c.6,0,1.6-1.1,2.3-1.9,0-.3-.4-.5-.8-.5-.8,0-1.7,1.3-1.6,2.1,0,.2.1.4.2.4ZM498.6,35.1c0-.4.5-.8.8-.8.4,0,.7.3.7.8,0,.4-.5.8-.8.8-.4,0-.8-.3-.7-.8ZM499.2,35.4c.2,0,.4-.2.4-.4,0-.2,0-.3-.1-.3-.2,0-.4.2-.4.5,0,.2,0,.2.2.2Z"/>
  <path class="st0" d="M516.9,36.5c-1.9,1.1-4.6,2.6-5.8,2.7-.8.1-1.3-.2-1.4-.8,0-.3,0-.8.1-1.2-.7.9-1.8,2-2.5,2.1-.4,0-.6-.3-.7-.8-.1-1.1.9-2.5,2-2.6.5,0,1,.1,1.2.5l.5-.6.2.2h.2c-.2.4-.7,1.7-.6,2.3,0,.4.3.5.9.4.9-.1,3-1.1,5.7-2.7l.2.4ZM507.3,38.8c.6,0,1.5-1.1,2.2-2,0-.3-.5-.5-.8-.5-.8.1-1.7,1.3-1.6,2.1,0,.2.1.4.2.4ZM508.2,33.9c0-.4.4-.8.8-.9.4,0,.8.3.7.8,0,.4-.4.8-.8.8-.4,0-.8-.3-.7-.8ZM508.9,34.3c.2,0,.4-.2.4-.5,0-.2,0-.3-.1-.3-.2,0-.4.2-.4.5,0,.2,0,.2.2.2Z"/>
  <path class="st0" d="M526.6,35c-1.9,1.2-4.6,2.6-5.8,2.8-.8.1-1.3-.2-1.4-.8,0-.3,0-.8.1-1.2-.7.9-1.7,2-2.4,2.1-.4,0-.6-.3-.7-.8-.2-1.1.8-2.5,1.9-2.7.5,0,1,.1,1.2.5l.5-.7.2.2h.2c-.2.4-.7,1.7-.6,2.4,0,.4.3.5.9.4.9-.1,3-1.1,5.6-2.8l.2.4ZM517,37.5c.6,0,1.5-1.1,2.2-2-.1-.3-.5-.5-.9-.5-.8.1-1.6,1.3-1.5,2.1,0,.2.1.4.2.4ZM517.8,32.6c0-.4.4-.8.8-.9.4,0,.8.3.7.8,0,.4-.4.8-.8.8-.4,0-.8-.3-.7-.8ZM518.5,32.9c.2,0,.4-.2.4-.5,0-.2,0-.3-.1-.3-.2,0-.4.3-.4.5,0,.2,0,.2.2.2Z"/>
  <path class="st0" d="M536.2,33.5c-1.9,1.2-4.5,2.7-5.8,2.9-.8.1-1.3-.2-1.4-.8,0-.3,0-.8.1-1.2-.7.9-1.7,2-2.4,2.1-.4,0-.6-.3-.7-.7-.2-1.1.8-2.5,1.9-2.7.5,0,1,.1,1.2.5l.5-.7.2.2h.2c-.1.4-.7,1.7-.5,2.4,0,.4.3.5.9.4.9-.1,2.9-1.2,5.6-2.8l.2.4ZM526.6,36.1c.6,0,1.5-1.2,2.2-2-.1-.3-.5-.5-.9-.5-.8.1-1.6,1.3-1.5,2.1,0,.2.1.4.2.4ZM527.4,31.2c0-.4.4-.8.8-.9.4,0,.8.3.7.8,0,.4-.4.8-.8.9-.4,0-.8-.3-.7-.8ZM528,31.5c.2,0,.4-.2.4-.5,0-.2,0-.3-.2-.2-.2,0-.4.3-.4.5,0,.2,0,.2.2.2Z"/>
  <path class="st0" d="M545.8,31.8c-1.9,1.2-4.5,2.7-5.7,2.9-.8.1-1.3-.1-1.4-.8,0-.3,0-.8,0-1.2-.7.9-1.7,2-2.4,2.1-.4,0-.6-.3-.7-.7-.2-1.1.8-2.5,1.9-2.7.5,0,1,.1,1.3.5l.5-.7.2.2h.2c-.1.4-.6,1.7-.5,2.4,0,.4.3.5.9.4.9-.2,2.9-1.2,5.6-2.9l.2.4ZM536.3,34.5c.6,0,1.5-1.2,2.2-2.1-.1-.3-.5-.5-.9-.5-.8.1-1.6,1.4-1.5,2.2,0,.2.1.4.2.4ZM537,29.6c0-.4.4-.8.8-.9.4,0,.8.3.7.8,0,.4-.4.8-.8.9-.4,0-.8-.3-.7-.8ZM537.6,29.9c.2,0,.4-.2.4-.5,0-.2,0-.3-.2-.2-.2,0-.4.3-.4.5,0,.2,0,.2.2.2Z"/>
  <path class="st0" d="M555.4,30.1c-1.9,1.2-4.5,2.8-5.7,3-.8.1-1.3-.1-1.4-.8,0-.3,0-.8,0-1.2-.7.9-1.7,2-2.4,2.2-.4,0-.6-.3-.7-.7-.2-1.1.8-2.5,1.8-2.7.5,0,1,0,1.3.5l.5-.7.2.2h.2c-.1.4-.6,1.7-.5,2.4,0,.4.3.5.9.4.9-.2,2.9-1.2,5.5-2.9l.3.4ZM545.9,32.9c.6-.1,1.5-1.2,2.2-2.1-.1-.3-.5-.5-.9-.5-.8.1-1.6,1.4-1.5,2.2,0,.2.1.4.2.4ZM546.6,28c0-.4.4-.8.8-.9.4,0,.8.3.7.8,0,.4-.4.8-.8.9-.4,0-.8-.3-.7-.8ZM547.3,28.3c.2,0,.4-.2.4-.5,0-.2,0-.3-.2-.2-.2,0-.4.3-.4.5,0,.2,0,.2.2.2Z"/>
  <path class="st0" d="M565.1,28.4c-1.9,1.2-4.5,2.8-5.7,3-.8.1-1.3-.1-1.4-.8,0-.3,0-.8,0-1.2-.7.9-1.7,2-2.4,2.2-.4,0-.6-.3-.7-.7-.2-1.1.8-2.5,1.8-2.7.5,0,1,0,1.3.5l.5-.7.3.2h.2c-.1.4-.6,1.7-.5,2.4,0,.4.3.5.9.4.9-.2,2.9-1.2,5.5-2.9l.3.4ZM555.6,31.2c.6-.1,1.5-1.2,2.2-2.1-.1-.3-.5-.5-.9-.4-.8.1-1.6,1.4-1.5,2.2,0,.2.1.4.2.4ZM556.3,26.3c0-.4.4-.8.8-.9.4,0,.8.3.7.8,0,.4-.4.8-.8.9-.4,0-.8-.3-.7-.7ZM556.9,26.6c.2,0,.4-.2.4-.5,0-.2,0-.3-.2-.2-.2,0-.4.3-.4.5,0,.2,0,.2.2.2Z"/>
  <path class="st0" d="M574.7,26.6c-1.9,1.2-4.5,2.8-5.7,3-.8.1-1.3-.1-1.4-.8,0-.3,0-.8,0-1.2-.7.9-1.7,2-2.4,2.2-.4,0-.6-.3-.7-.7-.2-1.1.8-2.5,1.8-2.7.5,0,1,0,1.3.5l.5-.7.2.2h.2c-.1.4-.6,1.7-.5,2.4,0,.4.3.5.9.4.9-.2,2.9-1.2,5.5-2.9l.3.4ZM565.2,29.4c.6-.1,1.5-1.2,2.1-2.1-.1-.3-.5-.5-.9-.4-.8.1-1.6,1.4-1.5,2.2,0,.2.1.4.2.4ZM565.9,24.5c0-.4.4-.8.8-.9.4,0,.8.3.7.8,0,.4-.4.8-.8.9-.4,0-.8-.3-.7-.7ZM566.5,24.8c.2,0,.4-.2.4-.5,0-.2,0-.3-.2-.2-.2,0-.4.3-.4.5,0,.2,0,.2.2.2Z"/>
  <path class="st0" d="M584.4,24.9c-1.9,1.2-4.5,2.8-5.7,3-.8.1-1.3-.1-1.4-.8,0-.3,0-.8,0-1.2-.7.9-1.7,2-2.4,2.2-.4,0-.6-.3-.7-.7-.2-1.1.8-2.5,1.8-2.7.5,0,1,0,1.3.5l.5-.7.3.2h.2c-.1.4-.6,1.7-.5,2.4,0,.4.3.5.9.4.9-.2,2.9-1.2,5.5-2.9l.3.4ZM574.9,27.7c.6-.1,1.5-1.2,2.2-2.1-.1-.3-.5-.5-.9-.4-.8.1-1.6,1.4-1.5,2.2,0,.2.1.4.2.4ZM575.6,22.8c0-.4.4-.8.8-.9.4,0,.8.3.7.8,0,.4-.4.8-.8.9-.4,0-.8-.3-.7-.7ZM576.2,23.1c.2,0,.4-.2.4-.5,0-.2,0-.3-.2-.2-.2,0-.4.3-.4.5,0,.2,0,.2.2.2Z"/>
  <path class="st0" d="M594,23.2c-1.9,1.2-4.5,2.8-5.7,3-.8.1-1.3-.1-1.4-.8,0-.3,0-.8,0-1.2-.7.9-1.7,2-2.4,2.2-.4,0-.6-.3-.7-.7-.2-1.1.8-2.5,1.8-2.7.5,0,1,0,1.3.5l.5-.7.2.2h.2c-.1.4-.6,1.7-.5,2.4,0,.4.3.5.9.4.9-.2,2.9-1.2,5.5-2.9l.3.4ZM584.5,26c.6-.1,1.5-1.2,2.2-2.1-.1-.3-.5-.5-.9-.5-.8.1-1.6,1.4-1.5,2.2,0,.2.1.4.2.4ZM585.2,21c0-.4.4-.8.8-.9.4,0,.8.3.7.8,0,.4-.4.8-.8.9-.4,0-.8-.3-.7-.8ZM585.8,21.3c.2,0,.4-.2.4-.5,0-.2,0-.3-.2-.2-.2,0-.4.3-.4.5,0,.2,0,.2.2.2Z"/>
  <path class="st0" d="M603.7,21.6c-1.9,1.2-4.5,2.7-5.7,2.9-.8.1-1.3-.1-1.4-.8,0-.3,0-.8,0-1.2-.7.9-1.7,2-2.4,2.1-.4,0-.6-.3-.7-.7-.2-1.1.8-2.5,1.9-2.7.5,0,1,.1,1.3.5l.5-.7.2.2h.2c-.1.4-.6,1.7-.5,2.4,0,.4.3.5.9.4.9-.2,2.9-1.2,5.6-2.9l.2.4ZM594.1,24.3c.6,0,1.5-1.2,2.2-2-.1-.3-.5-.5-.9-.5-.8.1-1.6,1.3-1.5,2.1,0,.2.1.4.2.4ZM594.9,19.4c0-.4.4-.8.8-.9.4,0,.8.3.7.8,0,.4-.4.8-.8.9-.4,0-.8-.3-.7-.8ZM595.5,19.6c.2,0,.4-.2.4-.5,0-.2,0-.3-.2-.2-.2,0-.4.3-.4.5,0,.2,0,.2.2.2Z"/>
  <path class="st0" d="M613.3,20.1c-1.9,1.2-4.6,2.7-5.8,2.9-.8.1-1.3-.2-1.4-.8,0-.3,0-.8.1-1.2-.7.9-1.7,2-2.4,2.1s-.6-.3-.7-.7c-.2-1.1.8-2.5,1.9-2.7.5,0,1,.1,1.2.5l.5-.7.2.2h.2c-.1.4-.7,1.7-.5,2.4,0,.4.3.5.9.4.9-.1,2.9-1.2,5.6-2.8l.2.4ZM603.8,22.6c.6,0,1.5-1.2,2.2-2-.1-.3-.5-.5-.9-.5-.8.1-1.6,1.3-1.5,2.1,0,.2.1.4.2.4ZM604.6,17.7c0-.4.4-.8.8-.9.4,0,.8.3.7.8,0,.4-.4.8-.8.9-.4,0-.8-.3-.7-.8ZM605.2,18c.2,0,.4-.2.4-.5,0-.2,0-.3-.1-.2-.2,0-.4.3-.4.5,0,.2,0,.2.2.2Z"/>
  <path class="st0" d="M623,18.7c-1.9,1.1-4.6,2.6-5.8,2.8-.8.1-1.3-.2-1.4-.8,0-.3,0-.8.1-1.2-.7.9-1.7,2-2.4,2.1-.4,0-.6-.3-.7-.8-.2-1.1.9-2.5,1.9-2.6.5,0,1,.1,1.2.5l.5-.7.2.2h.2c-.2.4-.7,1.7-.6,2.4,0,.4.3.5.9.4.9-.1,3-1.1,5.6-2.7l.2.4ZM613.4,21.1c.6,0,1.5-1.1,2.2-2-.1-.3-.5-.5-.8-.5-.8.1-1.6,1.3-1.5,2.1,0,.2.1.4.2.4ZM614.3,16.2c0-.4.4-.8.8-.9.4,0,.8.3.7.8,0,.4-.4.8-.8.8-.4,0-.8-.3-.7-.8ZM614.9,16.5c.2,0,.4-.2.4-.5,0-.2,0-.3-.1-.3-.2,0-.4.3-.4.5,0,.2,0,.2.2.2Z"/>
  <path class="st0" d="M632.7,17.4c-1.9,1.1-4.6,2.6-5.8,2.7-.8.1-1.3-.2-1.4-.8,0-.3,0-.8.1-1.2-.7.9-1.8,2-2.5,2.1-.4,0-.6-.3-.7-.8-.1-1.1.9-2.5,2-2.6.5,0,1,.1,1.2.5l.5-.6.2.2h.2c-.2.4-.7,1.7-.6,2.3,0,.4.3.5.9.4.9-.1,3-1.1,5.7-2.7l.2.4ZM623.1,19.7c.6,0,1.5-1.1,2.2-2,0-.3-.5-.5-.8-.5-.8.1-1.7,1.3-1.6,2.1,0,.2.1.4.2.4ZM624,14.8c0-.4.4-.8.8-.9.4,0,.8.3.7.8,0,.4-.4.8-.8.8-.4,0-.8-.3-.7-.8ZM624.6,15.2c.2,0,.4-.2.4-.5,0-.2,0-.3-.1-.3-.2,0-.4.2-.4.5,0,.2,0,.2.2.2Z"/>
  <path class="st0" d="M642.3,16c-1.9,1.1-4.6,2.6-5.8,2.8-.8.1-1.3-.2-1.4-.8,0-.3,0-.8.1-1.2-.7.9-1.7,2-2.5,2.1-.4,0-.6-.3-.7-.8-.2-1.1.9-2.5,1.9-2.6.5,0,1,.1,1.2.5l.5-.7.2.2h.2c-.2.4-.7,1.7-.6,2.3,0,.4.3.5.9.4.9-.1,3-1.1,5.6-2.7l.2.4ZM632.8,18.5c.6,0,1.5-1.1,2.2-2-.1-.3-.5-.5-.8-.5-.8.1-1.7,1.3-1.5,2.1,0,.2.1.4.2.4ZM633.6,13.6c0-.4.4-.8.8-.9.4,0,.8.3.7.8,0,.4-.4.8-.8.8-.4,0-.8-.3-.7-.8ZM634.3,13.9c.2,0,.4-.2.4-.5,0-.2,0-.3-.1-.3-.2,0-.4.3-.4.5,0,.2,0,.2.2.2Z"/>
  <path class="st0" d="M652,14.6c-1.9,1.1-4.6,2.6-5.8,2.8-.8.1-1.3-.2-1.4-.8,0-.3,0-.8.1-1.2-.7.9-1.7,2-2.4,2.1-.4,0-.6-.3-.7-.8-.2-1.1.9-2.5,1.9-2.6.5,0,1,.1,1.2.5l.5-.7.2.2h.2c-.2.4-.7,1.7-.6,2.4,0,.4.3.5.9.4.9-.1,3-1.1,5.6-2.7l.2.4ZM642.5,17.1c.6,0,1.5-1.1,2.2-2-.1-.3-.5-.5-.9-.5-.8.1-1.6,1.3-1.5,2.1,0,.2.1.4.2.4ZM643.3,12.2c0-.4.4-.8.8-.9.4,0,.8.3.7.8,0,.4-.4.8-.8.8-.4,0-.8-.3-.7-.8ZM643.9,12.5c.2,0,.4-.2.4-.5,0-.2,0-.3-.1-.3-.2,0-.4.3-.4.5,0,.2,0,.2.2.2Z"/>
  <path class="st0" d="M661.8,13.3c-1.9,1.1-4.6,2.6-5.8,2.8-.8.1-1.3-.2-1.4-.8,0-.3,0-.8.1-1.2-.7.9-1.7,2-2.5,2.1-.4,0-.6-.3-.7-.8-.2-1.1.9-2.5,1.9-2.6.5,0,1,.1,1.2.5l.5-.7.2.2h.2c-.2.4-.7,1.7-.6,2.3,0,.4.3.5.9.4.9-.1,3-1.1,5.6-2.7l.2.4ZM652.2,15.7c.6,0,1.5-1.1,2.2-2-.1-.3-.5-.5-.8-.5-.8.1-1.7,1.3-1.5,2.1,0,.2.1.4.2.4ZM653,10.8c0-.4.4-.8.8-.9.4,0,.8.3.7.8,0,.4-.4.8-.8.8-.4,0-.8-.3-.7-.8ZM653.7,11.1c.2,0,.4-.2.4-.5,0-.2,0-.3-.1-.3-.2,0-.4.3-.4.5,0,.2,0,.2.2.2Z"/>
  <path class="st0" d="M671.4,12c-1.9,1.1-4.6,2.6-5.8,2.7-.8.1-1.3-.2-1.4-.8,0-.3,0-.8.1-1.2-.7.9-1.8,2-2.5,2.1s-.6-.3-.7-.8c-.1-1.1.9-2.5,2-2.6.5,0,1,.1,1.2.5l.5-.6.2.2h.2c-.2.4-.7,1.7-.6,2.3,0,.4.3.5.9.4.9-.1,3-1.1,5.7-2.7l.2.4ZM661.8,14.3c.6,0,1.5-1.1,2.2-2,0-.3-.5-.5-.8-.5-.8.1-1.7,1.3-1.6,2.1,0,.2.1.4.2.4ZM662.7,9.4c0-.4.4-.8.8-.9.4,0,.8.3.7.8,0,.4-.4.8-.8.8-.4,0-.8-.3-.7-.8ZM663.4,9.8c.2,0,.4-.2.4-.5,0-.2,0-.3-.1-.3-.2,0-.4.2-.4.5,0,.2,0,.2.2.2Z"/>
  <path class="st0" d="M681.2,10.9c-1.9,1.1-4.7,2.5-5.9,2.6-.8,0-1.3-.2-1.4-.8,0-.3,0-.8.2-1.2-.7.9-1.8,1.9-2.5,2-.4,0-.6-.3-.7-.8-.1-1.1.9-2.5,2-2.6.5,0,1,.2,1.2.6l.5-.6.2.2h.2c-.2.4-.7,1.7-.6,2.3,0,.4.3.5.8.4.9-.1,3-1.1,5.7-2.6l.2.4ZM671.5,13c.6,0,1.6-1.1,2.3-1.9,0-.3-.4-.5-.8-.5-.8,0-1.7,1.3-1.6,2.1,0,.2.1.4.2.4ZM672.5,8.2c0-.4.5-.8.8-.8.4,0,.7.3.7.8,0,.4-.5.8-.8.8-.4,0-.8-.3-.7-.8ZM673.1,8.5c.2,0,.4-.2.4-.4,0-.2,0-.3-.1-.3-.2,0-.4.2-.4.5,0,.2,0,.2.2.2Z"/>
  <path class="st0" d="M690.9,9.9c-2,1.1-4.7,2.4-5.9,2.5-.8,0-1.3-.2-1.3-.9,0-.3,0-.8.2-1.2-.8.9-1.8,1.9-2.5,2-.4,0-.6-.3-.7-.8-.1-1.1,1-2.4,2.1-2.5.5,0,1,.2,1.2.6l.5-.6.2.2h.2c-.2.4-.8,1.6-.7,2.3,0,.4.3.5.8.4.9,0,3-1,5.7-2.5l.2.4ZM681.2,11.9c.6,0,1.6-1.1,2.3-1.9,0-.3-.4-.6-.8-.5-.8,0-1.7,1.2-1.6,2,0,.2.1.4.1.4ZM682.3,7.1c0-.4.5-.8.9-.8.4,0,.7.3.6.8,0,.4-.5.8-.8.8-.4,0-.8-.3-.7-.8ZM682.9,7.4c.2,0,.4-.2.4-.4,0-.2,0-.3-.1-.3-.2,0-.4.2-.4.5,0,.2,0,.3.2.2Z"/>
  <path class="st0" d="M700.6,9.3c-2,1-4.8,2.3-6,2.4-.8,0-1.3-.3-1.3-.9,0-.3,0-.8.2-1.2-.8.8-1.9,1.8-2.6,1.9-.4,0-.6-.4-.6-.8,0-1.1,1-2.4,2.1-2.5.5,0,1,.2,1.2.6l.5-.6.2.2h.2c-.2.4-.8,1.6-.8,2.3,0,.4.3.5.8.5.9,0,3-.9,5.8-2.3l.2.4ZM690.8,11c.6,0,1.6-1,2.4-1.8,0-.3-.4-.6-.8-.5-.8,0-1.7,1.2-1.7,2,0,.2,0,.4.1.4ZM692,6.2c0-.4.5-.8.9-.8.4,0,.7.4.6.8,0,.4-.5.8-.9.8-.4,0-.7-.3-.6-.8ZM692.6,6.5c.2,0,.4-.2.4-.4,0-.2,0-.3-.1-.3-.2,0-.4.2-.5.4,0,.2,0,.2.1.2Z"/>
  <path class="st0" d="M710.3,9c-2,.9-4.8,2.1-6.1,2.2-.8,0-1.3-.3-1.3-.9,0-.3,0-.8.2-1.1-.8.8-1.9,1.8-2.7,1.8-.4,0-.6-.4-.6-.8,0-1.1,1.1-2.4,2.2-2.4.5,0,1,.2,1.2.7l.6-.6.2.2h.1c-.2.4-.8,1.6-.8,2.3,0,.4.3.5.8.5.9,0,3.1-.8,5.9-2.1l.2.4ZM700.5,10.3c.6,0,1.6-1,2.4-1.7,0-.3-.4-.6-.8-.6-.8,0-1.8,1.1-1.8,1.9,0,.2,0,.4.1.4ZM701.9,5.6c.1-.4.5-.8.9-.8.4,0,.7.4.6.9-.1.4-.5.7-.9.8-.4,0-.7-.4-.6-.8ZM702.5,6c.2,0,.4-.2.5-.4,0-.2,0-.3-.1-.3-.2,0-.4.2-.5.4,0,.2,0,.3.1.2Z"/>
  <path class="st0" d="M720,9c-2.1.9-4.9,1.9-6.2,1.9-.8,0-1.3-.4-1.3-1,0-.3.1-.8.3-1.1-.9.8-2,1.7-2.7,1.7-.4,0-.6-.4-.6-.8,0-1.1,1.2-2.3,2.3-2.3.5,0,1,.3,1.1.7l.6-.6.2.2h.1c-.2.4-.9,1.6-.9,2.3,0,.4.2.5.8.5.9,0,3.1-.7,6-1.9l.2.4ZM710.1,10c.6,0,1.7-.9,2.5-1.6,0-.3-.4-.6-.8-.6-.8,0-1.8,1.1-1.8,1.9,0,.2,0,.4.1.4ZM711.7,5.3c.1-.4.5-.7.9-.7.4,0,.7.4.6.9-.1.4-.5.7-.9.7-.5,0-.7-.4-.6-.9ZM712.3,5.7c.2,0,.4-.2.5-.4,0-.2,0-.3-.1-.3-.2,0-.4.2-.5.4,0,.2,0,.3.1.3Z"/>
  <path class="st0" d="M729.6,9.5c-2.1.8-5,1.7-6.2,1.6-.8,0-1.2-.4-1.2-1.1,0-.3.2-.7.3-1.1-.9.7-2.1,1.6-2.8,1.6-.4,0-.6-.4-.5-.9,0-1.1,1.3-2.3,2.4-2.2.5,0,1,.3,1.1.8l.6-.5.2.2h.1c-.2.4-1,1.5-1,2.2,0,.4.2.5.8.6.9,0,3.1-.5,6.1-1.6l.2.4ZM719.8,10.1c.6,0,1.7-.8,2.6-1.5,0-.3-.3-.6-.7-.6-.8,0-1.9,1-1.9,1.8,0,.2,0,.4,0,.4ZM721.5,5.4c.1-.4.6-.7,1-.7.4,0,.7.4.5.9-.1.4-.6.7-1,.7-.5,0-.7-.4-.5-.9ZM722.1,5.9c.2,0,.4-.2.5-.4,0-.2,0-.3,0-.3-.2,0-.4.2-.5.4,0,.2,0,.3.1.3Z"/>
  <path class="st0" d="M739.2,10.6c-2.1.6-5.1,1.4-6.3,1.3-.8,0-1.2-.5-1.1-1.1,0-.3.2-.7.4-1.1-.9.7-2.2,1.5-2.9,1.4-.4,0-.5-.5-.5-.9.1-1.1,1.4-2.2,2.5-2.1.5,0,.9.4,1.1.8l.6-.5.2.2h.1c-.2.4-1.1,1.5-1.1,2.2,0,.4.2.5.7.6.9,0,3.2-.4,6.1-1.3v.4ZM729.3,10.6c.6,0,1.8-.7,2.6-1.4,0-.3-.3-.6-.7-.7-.8,0-1.9.9-2,1.7,0,.2,0,.4,0,.4ZM731.4,6.1c.2-.4.6-.7,1-.6.4,0,.7.5.5.9-.2.4-.6.7-1,.6-.4,0-.7-.5-.5-.9ZM731.9,6.5c.2,0,.4-.1.5-.3,0-.2,0-.3,0-.3-.2,0-.4.2-.5.4,0,.2,0,.2,0,.3Z"/>
  <path class="st0" d="M748.8,12c-2.2.6-5.1,1.2-6.3,1.1-.8-.1-1.2-.5-1.1-1.2,0-.3.2-.7.4-1.1-.9.7-2.2,1.4-2.9,1.3-.4,0-.5-.5-.5-.9.2-1.1,1.5-2.2,2.6-2,.5,0,.9.4,1,.9l.7-.5.2.2h.1c-.2.4-1.1,1.5-1.2,2.1,0,.4.2.5.7.6.9.1,3.2-.3,6.2-1.1v.5ZM738.9,11.7c.6,0,1.8-.7,2.7-1.3,0-.3-.3-.6-.7-.7-.8-.1-1.9.8-2.1,1.6,0,.2,0,.4,0,.4ZM741.1,7.2c.2-.4.6-.7,1-.6.4,0,.6.5.4,1-.2.4-.6.6-1,.6-.4,0-.7-.5-.5-.9ZM741.6,7.7c.2,0,.4-.1.5-.3,0-.2,0-.3,0-.3-.2,0-.4.1-.5.3s0,.2,0,.3Z"/>
  <path class="st0" d="M758.5,13.4c-2.2.5-5.1,1.2-6.4,1-.8-.1-1.2-.5-1.1-1.2,0-.3.2-.7.5-1.1-1,.7-2.2,1.4-2.9,1.3-.4,0-.5-.5-.4-.9.2-1.1,1.5-2.1,2.6-2,.5,0,.9.4,1,.9l.7-.5.2.2h.1c-.2.4-1.1,1.5-1.2,2.1,0,.4.2.6.7.6.9.1,3.2-.2,6.2-1v.5ZM748.6,13c.6,0,1.8-.6,2.7-1.3,0-.3-.3-.6-.7-.7-.8-.1-2,.8-2.1,1.6,0,.2,0,.4,0,.4ZM750.9,8.6c.2-.4.6-.6,1-.6.4,0,.6.5.4,1-.2.4-.6.6-1,.6-.4,0-.7-.5-.4-.9ZM751.4,9.1c.2,0,.4-.1.5-.3,0-.2,0-.3,0-.3-.2,0-.4.1-.5.3,0,.2,0,.2,0,.3Z"/>
  <path class="st0" d="M768.2,15c-2.2.5-5.2,1.1-6.4.9-.8-.1-1.2-.6-1.1-1.2,0-.3.2-.7.5-1.1-1,.6-2.2,1.4-3,1.3-.4,0-.5-.5-.4-.9.2-1.1,1.6-2.1,2.6-1.9.5,0,.9.4,1,.9l.7-.5.2.2h.1c-.2.4-1.1,1.4-1.2,2.1,0,.4.1.6.7.6.9.1,3.2-.2,6.2-.9v.5ZM758.3,14.5c.6,0,1.8-.6,2.7-1.2,0-.3-.3-.6-.7-.7-.8-.1-2,.8-2.1,1.6,0,.2,0,.4,0,.4ZM760.6,10.1c.2-.4.7-.6,1-.6.4,0,.6.5.4,1-.2.4-.6.6-1,.6-.4,0-.6-.5-.4-.9ZM761.1,10.6c.2,0,.4-.1.5-.3,0-.2,0-.3,0-.3-.2,0-.4.1-.5.3,0,.2,0,.2,0,.3Z"/>
  <path class="st0" d="M777.8,16.6c-2.2.5-5.2,1.1-6.4.9-.8-.1-1.2-.6-1.1-1.2,0-.3.2-.7.5-1.1-1,.6-2.3,1.4-3,1.2-.4,0-.5-.5-.4-.9.2-1.1,1.6-2.1,2.6-1.9.5,0,.9.4,1,.9l.7-.5.2.2h.1c-.2.4-1.1,1.4-1.2,2.1,0,.4.1.6.7.6.9.1,3.2-.2,6.2-.9v.5ZM767.9,16c.6,0,1.8-.6,2.7-1.2,0-.3-.3-.6-.7-.7-.8-.1-2,.8-2.1,1.5,0,.2,0,.4,0,.4ZM770.2,11.6c.2-.4.7-.6,1-.6.4,0,.6.5.4,1-.2.4-.7.6-1,.6-.4,0-.6-.5-.4-.9ZM770.8,12.1c.2,0,.4-.1.5-.3,0-.2,0-.3,0-.3-.2,0-.4.1-.5.3,0,.2,0,.2,0,.3Z"/>
  <path class="st0" d="M787.5,18.2c-2.2.5-5.2,1.1-6.4.9-.8-.1-1.2-.6-1.1-1.2,0-.3.2-.7.5-1.1-1,.6-2.3,1.4-3,1.2-.4,0-.5-.5-.4-.9.2-1.1,1.6-2.1,2.6-1.9.5,0,.9.4,1,.9l.7-.5.2.2h.1c-.2.4-1.1,1.4-1.2,2.1,0,.4.1.6.7.6.9.1,3.2-.2,6.2-.9v.5ZM777.6,17.7c.6,0,1.8-.6,2.7-1.2,0-.3-.3-.6-.7-.7-.8-.1-2,.7-2.1,1.5,0,.2,0,.4,0,.4ZM779.9,13.3c.2-.4.7-.6,1-.6.4,0,.6.5.4,1-.2.4-.7.6-1,.6-.4,0-.6-.5-.4-.9ZM780.4,13.8c.2,0,.4-.1.5-.3,0-.2,0-.3,0-.3-.2,0-.4.1-.5.3,0,.2,0,.2,0,.3Z"/>
  <path class="st0" d="M797.2,19.9c-2.2.5-5.2,1.1-6.4.9-.8-.1-1.2-.6-1.1-1.2,0-.3.2-.7.5-1.1-1,.6-2.3,1.4-3,1.2-.4,0-.5-.5-.4-.9.2-1.1,1.6-2.1,2.6-1.9s.9.4,1,.9l.7-.5.2.2h.1c-.2.4-1.1,1.4-1.2,2.1,0,.4.1.6.7.6.9.1,3.2-.2,6.2-.9v.5ZM787.3,19.3c.6,0,1.8-.6,2.7-1.2,0-.3-.3-.6-.7-.7-.8-.1-2,.8-2.1,1.5,0,.2,0,.4,0,.4ZM789.6,14.9c.2-.4.7-.6,1-.6.4,0,.6.5.4,1-.2.4-.7.6-1,.6-.4,0-.6-.5-.4-.9ZM790.1,15.4c.2,0,.4-.1.5-.3,0-.2,0-.3,0-.3-.2,0-.4.1-.5.3,0,.2,0,.2,0,.3Z"/>
  <path class="st0" d="M806.8,21.4c-2.2.5-5.2,1.1-6.4.9-.8-.1-1.2-.6-1.1-1.2,0-.3.2-.7.5-1.1-1,.6-2.2,1.4-3,1.3-.4,0-.5-.5-.4-.9.2-1.1,1.6-2.1,2.6-1.9.5,0,.9.4,1,.9l.7-.5.2.2h.1c-.2.4-1.1,1.4-1.2,2.1,0,.4.1.6.7.6.9.1,3.2-.2,6.2-.9v.5ZM796.9,20.9c.6,0,1.8-.6,2.7-1.2,0-.3-.3-.6-.7-.7-.8-.1-2,.8-2.1,1.6,0,.2,0,.4,0,.4ZM799.2,16.5c.2-.4.7-.6,1-.6.4,0,.6.5.4,1-.2.4-.6.6-1,.6-.4,0-.6-.5-.4-.9ZM799.7,17c.2,0,.4-.1.5-.3,0-.2,0-.3,0-.3-.2,0-.4.1-.5.3,0,.2,0,.2,0,.3Z"/>
  <path class="st0" d="M816.5,22.9c-2.2.5-5.2,1.2-6.4,1-.8-.1-1.2-.5-1.1-1.2,0-.3.2-.7.5-1.1-1,.7-2.2,1.4-2.9,1.3-.4,0-.5-.5-.4-.9.2-1.1,1.5-2.1,2.6-2,.5,0,.9.4,1,.9l.7-.5.2.2h.1c-.2.4-1.1,1.5-1.2,2.1,0,.4.2.6.7.6.9.1,3.2-.2,6.2-1v.5ZM806.6,22.5c.6,0,1.8-.6,2.7-1.3,0-.3-.3-.6-.7-.7-.8-.1-2,.8-2.1,1.6,0,.2,0,.4,0,.4ZM808.8,18c.2-.4.6-.6,1-.6.4,0,.6.5.4,1-.2.4-.6.6-1,.6-.4,0-.7-.5-.4-.9ZM809.3,18.5c.2,0,.4-.1.5-.3,0-.2,0-.3,0-.3-.2,0-.4.1-.5.3,0,.2,0,.2,0,.3Z"/>
  <path class="st0" d="M826.1,24.2c-2.2.6-5.1,1.2-6.3,1.1-.8-.1-1.2-.5-1.1-1.2,0-.3.2-.7.4-1.1-.9.7-2.2,1.4-2.9,1.3-.4,0-.5-.5-.5-.9.1-1.1,1.5-2.2,2.6-2,.5,0,.9.4,1,.9l.7-.5.2.2h.1c-.2.4-1.1,1.5-1.2,2.1,0,.4.2.5.7.6.9.1,3.2-.3,6.2-1.1v.5ZM816.2,23.9c.6,0,1.8-.7,2.7-1.3,0-.3-.3-.6-.7-.7-.8-.1-1.9.8-2.1,1.6,0,.2,0,.4,0,.4ZM818.4,19.5c.2-.4.6-.7,1-.6.4,0,.6.5.4,1-.2.4-.6.6-1,.6-.4,0-.7-.5-.5-.9ZM818.9,19.9c.2,0,.4-.1.5-.3,0-.2,0-.3,0-.3-.2,0-.4.1-.5.3s0,.2,0,.3Z"/>
  <path class="st0" d="M835.8,25.4c-2.1.6-5.1,1.3-6.3,1.2-.8,0-1.2-.5-1.1-1.1,0-.3.2-.7.4-1.1-.9.7-2.2,1.5-2.9,1.4-.4,0-.5-.5-.5-.9.1-1.1,1.5-2.2,2.6-2,.5,0,.9.4,1.1.8l.6-.5.2.2h.1c-.2.4-1.1,1.5-1.2,2.2,0,.4.2.5.7.6.9.1,3.2-.3,6.1-1.2v.5ZM825.9,25.3c.6,0,1.8-.7,2.7-1.3,0-.3-.3-.6-.7-.7-.8,0-1.9.8-2,1.6,0,.2,0,.4,0,.4ZM828,20.8c.2-.4.6-.7,1-.6.4,0,.6.5.4.9-.2.4-.6.6-1,.6-.4,0-.7-.5-.5-.9ZM828.5,21.2c.2,0,.4-.1.5-.3,0-.2,0-.3,0-.3-.2,0-.4.1-.5.4,0,.2,0,.2,0,.3Z"/>
  <path class="st0" d="M845.4,26.4c-2.1.6-5.1,1.4-6.3,1.3-.8,0-1.2-.5-1.2-1.1,0-.3.2-.7.4-1.1-.9.7-2.2,1.5-2.9,1.4-.4,0-.5-.5-.5-.9.1-1.1,1.4-2.2,2.5-2.1.5,0,.9.4,1.1.8l.6-.5.2.2h.1c-.2.4-1,1.5-1.1,2.2,0,.4.2.5.7.6.9,0,3.2-.4,6.1-1.3v.4ZM835.5,26.5c.6,0,1.8-.7,2.6-1.4,0-.3-.3-.6-.7-.7-.8,0-1.9.9-2,1.7,0,.2,0,.4,0,.4ZM837.6,21.9c.2-.4.6-.7,1-.6.4,0,.7.5.5.9-.2.4-.6.7-1,.6-.4,0-.7-.5-.5-.9ZM838.1,22.4c.2,0,.4-.1.5-.3,0-.2,0-.3,0-.3-.2,0-.4.2-.5.4,0,.2,0,.2,0,.3Z"/>
</svg>